<?xml version="1.0" encoding="UTF-8" standalone="no"?>
<!-- Created with Inkscape (http://www.inkscape.org/) -->
<svg id="svg2" xmlns:rdf="http://www.w3.org/1999/02/22-rdf-syntax-ns#" xmlns="http://www.w3.org/2000/svg" height="56" width="56" version="1.1" xmlns:cc="http://creativecommons.org/ns#" xmlns:dc="http://purl.org/dc/elements/1.1/">
 <metadata id="metadata7">
  <rdf:RDF>
   <cc:Work rdf:about="">
    <dc:format>image/svg+xml</dc:format>
    <dc:type rdf:resource="http://purl.org/dc/dcmitype/StillImage"/>
    <dc:title/>
   </cc:Work>
  </rdf:RDF>
 </metadata>
 <g id="layer1" transform="translate(-654.87999,-589.78436)">
  <g id="text11418" style="font-size:44.69525909px;font-family:Bitstream Vera Sans;font-weight:bold;font-style:normal;fill:#999999;" transform="scale(1.0007797,0.99922091)">
   <path id="path5252" d="m684.35,604.26,0,12.003,11.991,0,0,4.0031-11.991,0,0,12.016-3.9969,0,0-12.016-11.991,0,0-4.0031,11.991,0,0-12.003,3.9969,0m-1.9984-14.017c-15.452,0-27.978,12.546-27.978,28.022s12.526,28.022,27.978,28.022,27.978-12.546,27.978-28.022-12.526-28.022-27.978-28.022zm0,4.0031c13.245,0,23.981,10.754,23.981,24.019s-10.737,24.019-23.981,24.019-23.981-10.754-23.981-24.019,10.737-24.019,23.981-24.019z"/>
  </g>
 </g>
</svg>
