<?xml version="1.0" encoding="UTF-8" standalone="no"?>
<!-- Created with Inkscape (http://www.inkscape.org/) -->

<svg
   xmlns:dc="http://purl.org/dc/elements/1.1/"
   xmlns:cc="http://creativecommons.org/ns#"
   xmlns:rdf="http://www.w3.org/1999/02/22-rdf-syntax-ns#"
   xmlns:svg="http://www.w3.org/2000/svg"
   xmlns="http://www.w3.org/2000/svg"
   xmlns:xlink="http://www.w3.org/1999/xlink"
   xmlns:sodipodi="http://sodipodi.sourceforge.net/DTD/sodipodi-0.dtd"
   xmlns:inkscape="http://www.inkscape.org/namespaces/inkscape"
   width="750"
   height="560"
   viewBox="0 0 750 560.00002"
   id="svg2"
   version="1.1"
   inkscape:version="0.91 r13725"
   inkscape:export-filename="/home/daniel/preview.png"
   inkscape:export-xdpi="90"
   inkscape:export-ydpi="90"
   sodipodi:docname="developer_preview.svg">
  <defs
     id="defs4">
    <filter
       height="1.024"
       y="-0.012"
       width="1.024"
       x="-0.012"
       id="filter4288"
       style="color-interpolation-filters:sRGB"
       inkscape:collect="always">
      <feGaussianBlur
         id="feGaussianBlur4290"
         stdDeviation="1.3391406"
         inkscape:collect="always" />
    </filter>
    <filter
       height="1.12"
       y="-0.059999999"
       width="1.12"
       x="-0.059999999"
       id="filter4298"
       style="color-interpolation-filters:sRGB"
       inkscape:collect="always">
      <feGaussianBlur
         id="feGaussianBlur4300"
         stdDeviation="6.695703"
         inkscape:collect="always" />
    </filter>
    <clipPath
       id="highcharts-13">
      <rect
         x="0"
         y="0"
         width="580"
         height="338"
         id="rect9" />
    </clipPath>
    <linearGradient
       id="linearGradient4469">
      <stop
         offset="0"
         stop-color="#fff"
         id="stop4471" />
      <stop
         offset="1"
         stop-opacity="0"
         stop-color="#fff"
         id="stop4473" />
    </linearGradient>
    <linearGradient
       y2="43"
       x2="24"
       gradientTransform="matrix(2.7297,0,0,2.7297,-1.5135,1.4865)"
       y1="5"
       gradientUnits="userSpaceOnUse"
       x1="24"
       id="linearGradient3159">
      <stop
         offset="0"
         stop-color="#fff"
         id="stop3124" />
      <stop
         offset=".063165"
         stop-opacity=".23529"
         stop-color="#fff"
         id="stop3126" />
      <stop
         offset=".95056"
         stop-opacity=".15686"
         stop-color="#fff"
         id="stop3128" />
      <stop
         offset="1"
         stop-opacity=".39216"
         stop-color="#fff"
         id="stop3130" />
    </linearGradient>
    <radialGradient
       gradientTransform="matrix(2.0038,0,0,1.4,27.988,-17.4)"
       r="2.5"
       cy="43.5"
       gradientUnits="userSpaceOnUse"
       cx="4.993"
       id="radialGradient2455-1">
      <stop
         offset="0"
         stop-color="#181818"
         id="stop2883-0" />
      <stop
         offset="1"
         stop-opacity="0"
         stop-color="#181818"
         id="stop2885-5" />
    </radialGradient>
    <radialGradient
       gradientTransform="matrix(2.0038,0,0,1.4,-20.012,-104.4)"
       r="2.5"
       cy="43.5"
       gradientUnits="userSpaceOnUse"
       cx="4.993"
       id="radialGradient2457-5">
      <stop
         offset="0"
         stop-color="#181818"
         id="stop2889-9" />
      <stop
         offset="1"
         stop-opacity="0"
         stop-color="#181818"
         id="stop2891-4" />
    </radialGradient>
    <linearGradient
       y2="39.999"
       x2="25.058"
       y1="47.028"
       gradientUnits="userSpaceOnUse"
       x1="25.058"
       id="linearGradient2459-7">
      <stop
         offset="0"
         stop-opacity="0"
         stop-color="#181818"
         id="stop2895-0" />
      <stop
         offset=".5"
         stop-color="#181818"
         id="stop2897-2" />
      <stop
         offset="1"
         stop-opacity="0"
         stop-color="#181818"
         id="stop2899-6" />
    </linearGradient>
    <radialGradient
       gradientTransform="matrix(1.5564,0,0,0.16979,70.27,102.13)"
       r="35.338"
       cy="93.468"
       gradientUnits="userSpaceOnUse"
       cx="-4.0288"
       id="radialGradient4377">
      <stop
         offset="0"
         id="stop3813" />
      <stop
         offset="1"
         stop-opacity="0"
         id="stop3815" />
    </radialGradient>
    <linearGradient
       x1="13"
       x2="78"
       gradientTransform="translate(-128)"
       y1="67"
       gradientUnits="userSpaceOnUse"
       xlink:href="#linearGradient4469"
       y2="67"
       id="linearGradient4343" />
    <mask
       maskUnits="userSpaceOnUse"
       id="mask4339">
      <rect
         fill="url(#linearGradient4343)"
         height="103"
         x="-115.5"
         y="15.5"
         width="103"
         ry="6.0545"
         transform="scale(-1,1)"
         rx="6.0545"
         style="color:#000000"
         id="rect4341" />
    </mask>
    <mask
       maskUnits="userSpaceOnUse"
       id="mask4373">
      <rect
         fill="url(#linearGradient4343)"
         height="103"
         x="-115.5"
         y="15.5"
         width="103"
         ry="6.0545"
         transform="scale(-1,1)"
         rx="6.0545"
         style="color:#000000"
         id="rect4375" />
    </mask>
    <linearGradient
       x1="11.854"
       x2="95.76"
       gradientTransform="translate(-128,0)"
       y1="67"
       gradientUnits="userSpaceOnUse"
       y2="67"
       id="linearGradient4385">
      <stop
         offset="0"
         stop-color="#1c2c38"
         id="stop4381" />
      <stop
         offset="1"
         stop-opacity=".56039"
         stop-color="#fff"
         id="stop4383" />
    </linearGradient>
    <linearGradient
       x1="32.062"
       x2="78"
       gradientTransform="matrix(-1,0,0,1,128,0)"
       y1="67"
       gradientUnits="userSpaceOnUse"
       y2="67"
       id="linearGradient4409">
      <stop
         offset="0"
         stop-opacity=".050980"
         id="stop4405" />
      <stop
         offset="1"
         stop-opacity=".49804"
         stop-color="#fff"
         id="stop4407" />
    </linearGradient>
    <linearGradient
       x1="51.796"
       x2="67.836"
       y1="67.014"
       gradientUnits="userSpaceOnUse"
       y2="67.014"
       id="linearGradient4417">
      <stop
         offset="0"
         stop-color="#fff"
         id="stop4413" />
      <stop
         offset="1"
         stop-opacity=".14493"
         id="stop4415" />
    </linearGradient>
    <linearGradient
       x1="13"
       x2="95.76"
       gradientTransform="translate(-128)"
       y1="67"
       gradientUnits="userSpaceOnUse"
       xlink:href="#linearGradient4469"
       y2="67"
       id="linearGradient4431" />
    <mask
       maskUnits="userSpaceOnUse"
       id="mask4427">
      <rect
         fill="url(#linearGradient4431)"
         x="-115.5"
         y="15.5"
         width="103"
         height="103"
         ry="6.0545"
         rx="6.0545"
         transform="scale(-1,1)"
         style="color:#000000"
         id="rect4429" />
    </mask>
    <linearGradient
       x1="40"
       x2="66.174"
       gradientTransform="matrix(0.97917,0,0,0.97917,0.84375,0.90625)"
       y1="67.5"
       gradientUnits="userSpaceOnUse"
       y2="67.5"
       id="linearGradient4465">
      <stop
         offset="0"
         stop-color="#fff"
         id="stop4461" />
      <stop
         offset="1"
         stop-opacity="0"
         stop-color="#fff"
         id="stop4463" />
    </linearGradient>
    <linearGradient
       x1="8.6228"
       x2="14.555"
       gradientTransform="matrix(-1.3045,0,0,-1.3045,28.847,38.388)"
       y1="13.303"
       gradientUnits="userSpaceOnUse"
       xlink:href="#linearGradient4469"
       y2="19.236"
       id="linearGradient4475-9" />
    <linearGradient
       x1="8.6228"
       x2="14.555"
       gradientTransform="matrix(-1.3045,0,0,1.3045,28.847,95.6)"
       y1="13.303"
       gradientUnits="userSpaceOnUse"
       xlink:href="#linearGradient4469"
       y2="19.236"
       id="linearGradient4475-9-5" />
    <linearGradient
       x1="32"
       y1="67"
       gradientTransform="matrix(-1,0,0,1,128,0)"
       x2="96"
       gradientUnits="userSpaceOnUse"
       y2="67"
       id="linearGradient4223">
      <stop
         offset="0"
         stop-color="#455365"
         id="stop4219" />
      <stop
         offset="1"
         stop-opacity="0"
         stop-color="#455365"
         id="stop4221" />
    </linearGradient>
    <linearGradient
       x1="110.35"
       y1="73.779"
       x2="32.759"
       gradientUnits="userSpaceOnUse"
       y2="73.779"
       id="linearGradient4234">
      <stop
         offset="0"
         stop-color="#606e84"
         id="stop4230" />
      <stop
         offset=".5"
         stop-opacity=".77"
         stop-color="#606e84"
         id="stop4220" />
      <stop
         offset="1"
         stop-opacity="0"
         stop-color="#606e84"
         id="stop4232" />
    </linearGradient>
  </defs>
  <sodipodi:namedview
     id="base"
     pagecolor="#ffffff"
     bordercolor="#666666"
     borderopacity="1.0"
     inkscape:pageopacity="0.0"
     inkscape:pageshadow="2"
     inkscape:zoom="0.35355339"
     inkscape:cx="377.82843"
     inkscape:cy="27.299052"
     inkscape:document-units="px"
     inkscape:current-layer="layer1"
     showgrid="false"
     fit-margin-top="0"
     fit-margin-left="0"
     fit-margin-right="0"
     fit-margin-bottom="0"
     units="px"
     inkscape:window-width="1440"
     inkscape:window-height="844"
     inkscape:window-x="0"
     inkscape:window-y="30"
     inkscape:window-maximized="1" />
  <metadata
     id="metadata7">
    <rdf:RDF>
      <cc:Work
         rdf:about="">
        <dc:format>image/svg+xml</dc:format>
        <dc:type
           rdf:resource="http://purl.org/dc/dcmitype/StillImage" />
        <dc:title></dc:title>
      </cc:Work>
    </rdf:RDF>
  </metadata>
  <g
     inkscape:label="Layer 1"
     inkscape:groupmode="layer"
     id="layer1"
     transform="translate(-356.74078,-583.68254)">
    <rect
       style="color:#fbc02d;clip-rule:nonzero;display:inline;overflow:visible;visibility:visible;opacity:1;isolation:auto;mix-blend-mode:normal;color-interpolation:sRGB;color-interpolation-filters:linearRGB;solid-color:#000000;solid-opacity:1;fill:#3a416f;fill-opacity:1;fill-rule:nonzero;stroke:none;stroke-width:1;stroke-linecap:butt;stroke-linejoin:miter;stroke-miterlimit:4;stroke-dasharray:none;stroke-dashoffset:0;stroke-opacity:1;marker:none;color-rendering:auto;image-rendering:auto;shape-rendering:auto;text-rendering:auto;enable-background:accumulate"
       id="rect4147"
       width="750"
       height="560"
       x="356.74078"
       y="583.68256" />
    <text
       xml:space="preserve"
       style="color:#000000;font-style:normal;font-variant:normal;font-weight:300;font-stretch:normal;font-size:65px;line-height:125%;font-family:'Open Sans';-inkscape-font-specification:'Open Sans Light';letter-spacing:0px;word-spacing:0px;clip-rule:nonzero;display:inline;overflow:visible;visibility:visible;opacity:0.1;isolation:auto;mix-blend-mode:normal;color-interpolation:sRGB;color-interpolation-filters:linearRGB;solid-color:#000000;solid-opacity:1;fill:#000000;fill-opacity:1;fill-rule:nonzero;stroke:none;stroke-width:1;stroke-linecap:butt;stroke-linejoin:miter;stroke-miterlimit:4;stroke-dasharray:none;stroke-dashoffset:0;stroke-opacity:1;filter:url(#filter4298);color-rendering:auto;image-rendering:auto;shape-rendering:auto;text-rendering:auto;enable-background:accumulate"
       x="726.26001"
       y="949.99841"
       id="text4455-8-8"
       sodipodi:linespacing="125%"><tspan
         sodipodi:role="line"
         id="tspan4457-3-9"
         x="726.26001"
         y="949.99841"
         style="color:#000000;font-style:normal;font-variant:normal;font-weight:300;font-stretch:normal;font-size:65px;font-family:'Open Sans';-inkscape-font-specification:'Open Sans Light';text-align:center;letter-spacing:0px;text-anchor:middle;clip-rule:nonzero;display:inline;overflow:visible;visibility:visible;isolation:auto;mix-blend-mode:normal;color-interpolation:sRGB;color-interpolation-filters:linearRGB;solid-color:#000000;solid-opacity:1;fill:#000000;fill-opacity:1;fill-rule:nonzero;stroke-width:1;stroke-linecap:butt;stroke-linejoin:miter;stroke-miterlimit:4;stroke-dasharray:none;stroke-dashoffset:0;stroke-opacity:1;filter:url(#filter4298);color-rendering:auto;image-rendering:auto;shape-rendering:auto;text-rendering:auto;enable-background:accumulate">Developer Home</tspan></text>
    <path
       id="path4204-9-2"
       d="m 513.60321,771.18814 0,73.60534 c 0,5.19545 3.42562,9.64606 9.33236,9.64606 l 5.34308,0 -0.0503,-2.25634 c -0.11743,0 -1.94934,0.0503 -5.13841,0.0503 -4.6083,0 -7.07937,-4.01612 -7.07937,-7.44173 l 0,-73.60702 -2.41068,0 z m 326.86567,0 0,73.81336 c 0,5.67021 4.92033,9.43636 10.59054,9.43636 6.49557,0 7.27229,0.11743 7.3914,0 l 0,-2.36538 -7.39476,0 c -4.13522,0 -7.87789,-2.46939 -8.23186,-7.07601 l 0,-50.06056 17.09114,0 0,-2.35867 -17.09114,0 0,-21.3891 -2.35867,0 z m 128.59628,3.50949 c -1.34709,0.0839 -2.7076,0.43617 -3.87855,1.10385 -1.78326,1.01661 -3.18236,2.75122 -3.77455,4.71734 -0.40597,1.34542 -0.39087,2.79484 -0.2617,4.19394 0.14259,1.55679 0.44288,3.06326 0.88912,4.56301 0.33216,1.1072 0.76665,2.18085 1.20785,3.24779 -1.7279,0.0168 -3.46419,0.047 -5.19042,0.0537 -0.41939,0 -3.68564,0.0369 -5.34811,0.5234 -8.79554,2.57844 -14.23088,7.16325 -18.40301,15.30789 l 0.003,-15.82793 -2.36035,0 0,61.28186 2.36538,0 0,-38.74195 c 1.53331,-5.60814 4.36841,-10.51169 8.38788,-14.10003 4.01444,-3.59001 9.20151,-5.84467 15.46222,-6.08121 1.92922,-0.0772 3.99935,-0.0789 5.97721,-0.10569 l 27.46863,59.02888 c -9.33235,21.2616 -9.68465,21.99302 -10.27515,22.6976 -0.8304,0.82872 -1.77823,1.25818 -5.56117,1.25818 l -2.09697,-0.0503 0,2.35867 2.09697,0.0537 c 4.37177,0 6.73547,-0.92602 7.91816,-2.93576 l 0.83879,-1.41419 36.48721,-83.2514 -2.622,0 -25.6367,58.3461 -25.84306,-56.14512 c 1.24979,-0.0168 2.53314,0.0621 3.77455,-0.10401 1.34206,-0.1795 2.61702,-0.71633 3.77454,-1.41588 1.21457,-0.7331 2.30164,-1.63731 3.14546,-2.77806 1.1743,-1.58699 1.78158,-3.58498 1.83527,-5.55781 0.0453,-1.67255 -0.28519,-3.33167 -1.04849,-4.82136 -0.60393,-1.16759 -1.45949,-2.19762 -2.46604,-3.04144 -1.26489,-1.05688 -2.79148,-1.81514 -4.40531,-2.15066 -0.78511,-0.16272 -1.61047,-0.24828 -2.41236,-0.20969 l -0.0503,0 z m 0.73478,1.94264 c 1.30851,0.0168 2.6036,0.49991 3.66886,1.25818 1.0703,0.75491 1.92586,1.82352 2.51637,2.98608 0.73813,1.44607 1.08371,3.10352 0.94783,4.71903 -0.13756,1.61718 -0.72136,3.179 -1.78327,4.40363 -1.48801,1.71952 -3.86513,2.69587 -6.13154,2.51637 l -3.04144,0 -0.99816,-2.20098 c -0.59219,-1.40413 -1.02668,-2.90724 -1.31354,-4.40364 -0.29358,-1.54001 -0.52005,-3.15384 -0.10401,-4.66366 0.41604,-1.51653 1.48968,-2.75123 2.83175,-3.56653 1.02835,-0.62909 2.20265,-1.06526 3.40548,-1.05184 z m -170.53569,14.94049 c -17.24548,0 -23.80145,15.74909 -23.80145,28.14973 l 0,34.13029 2.35867,0 0,-34.13029 c 0,-12.87373 7.02905,-25.79106 21.43943,-25.79106 14.41373,0 21.38909,12.91733 21.38909,25.79273 l 0,34.13197 2.36203,0 0,-34.13364 c 0,-12.40064 -6.50228,-28.14973 -23.74777,-28.14973 z m -328.33522,0.0503 c -17.1247,0 -27.99036,15.34982 -28.46511,31.77329 0,15.70883 12.38722,31.66258 29.51527,31.66258 9.21325,0 20.59728,-5.11158 24.37519,-14.6788 l -2.5667,0 c -3.66214,8.03224 -12.83345,12.31845 -21.80849,12.31845 -15.00256,0 -26.09302,-13.26963 -27.1566,-28.14973 l 56.09479,0 0,-1.25819 c -0.23486,-16.77576 -12.03157,-31.66593 -29.98667,-31.66593 z m 92.68609,0 c -17.12806,0 -27.99204,15.34982 -28.46512,31.77329 0,15.70883 12.43923,31.66258 29.56729,31.66258 9.21324,0 20.54527,-5.11158 24.32485,-14.6788 l -2.51636,0 c -3.66215,8.03224 -12.83346,12.31845 -21.80849,12.31845 -15.00089,0 -26.14503,-13.26963 -27.21029,-28.14973 l 56.14848,0 0,-1.25819 C 593.42061,806.5229 581.57189,791.63273 563.6168,791.63273 Z m 63.43419,0 c -10.03694,0 -17.93665,7.68832 -20.33726,17.0945 -1.1743,4.5932 -1.57189,6.0896 -1.57189,45.13519 l 2.357,0 c 0,-34.36683 0.0906,-36.9352 0.73478,-41.6257 1.50478,-9.91449 8.51369,-18.3443 18.81905,-18.24365 11.0049,0 21.5904,7.08943 20.9697,25.9521 0,5.02099 0.16105,13.66386 0.16105,20.07723 0,7.18674 -0.1577,13.84001 -0.1577,13.84001 l 2.36035,0 c 0,0 0.25164,-22.81001 0,-33.92059 -0.411,-17.89134 9.26022,-25.92693 19.97323,-25.94875 11.16091,0.16775 19.72494,8.5892 20.39261,20.2886 0.33887,5.93359 0.1577,29.52031 0.1577,39.58409 l 2.35867,0 c 0,-39.14624 -0.38249,-40.87917 -1.20786,-45.03285 -1.75474,-8.85425 -10.5184,-17.19516 -21.70112,-17.19516 -11.63232,0 -20.06382,8.45498 -20.8657,17.82593 -0.94447,-9.44979 -10.97973,-17.82425 -22.43758,-17.82425 z m 106.79115,0 c -17.12806,0 -27.99372,15.34982 -28.46512,31.77329 0,15.70883 12.43755,31.66258 29.56561,31.66258 9.21325,0 20.54527,-5.11158 24.32485,-14.6788 l -2.51636,0 c -3.66215,8.03224 -12.83346,12.31845 -21.80849,12.31845 -15.00257,0 -26.14503,-13.26963 -27.21029,-28.14973 l 56.14848,0 0,-1.25819 c -0.23486,-16.77576 -12.08526,-31.66593 -30.03868,-31.66593 z m 159.68512,0 c -7.55915,0 -14.85326,3.65208 -21.2314,8.02217 l 1.41252,1.88726 c 6.85122,-4.84148 13.91046,-7.54909 19.81721,-7.54909 12.16746,0 20.08058,8.71165 20.08058,21.23308 l 0,6.97201 c -3.19075,-1.18102 -10.51169,-3.40548 -20.5503,-3.40548 -10.63248,0 -25.27101,4.22749 -25.27101,17.45518 0,10.51337 8.76869,18.8224 19.87256,18.8224 9.56722,0 19.68972,-3.55646 25.95211,-11.58869 l 0,5.66182 c 0,2.48281 1.52659,4.60159 4.24427,4.71902 l 2.35867,0 0,-2.357 -2.357,0 c -1.30012,0 -1.65073,-0.94447 -1.88727,-2.36202 l 0,-33.91724 c 0,-13.23104 -7.67155,-23.59176 -22.43758,-23.59176 z m -422.59319,2.36202 c 15.70882,0 26.45537,12.25805 27.52063,28.20509 l -53.63211,0 c 0.71297,-13.46422 9.92622,-28.20173 26.11148,-28.20173 z m 92.68608,0 c 15.70883,0 26.45538,12.25805 27.52064,28.20509 l -53.63211,0 c 0.71129,-13.46422 9.92622,-28.20341 26.1098,-28.20341 z m 170.22031,0 c 15.70882,0 26.45873,12.25805 27.52231,28.20509 l -53.63211,0 c 0.70962,-13.46422 9.92622,-28.20341 26.1098,-28.20341 z m 159.21205,27.15661 c 6.85122,0 13.81652,1.07029 20.55031,3.66886 l 0,12.16243 c 0,1.41755 -0.54857,3.05318 -1.7279,4.82303 -4.84484,7.56083 -15.24582,10.90424 -24.22421,10.90424 -9.09246,0 -17.50886,-6.53751 -17.50886,-16.46037 0,-11.45785 12.87037,-15.0982 22.91066,-15.0982 z"
       style="color:#000000;text-align:start;clip-rule:nonzero;display:inline;overflow:visible;visibility:visible;opacity:0.1;isolation:auto;mix-blend-mode:normal;color-interpolation:sRGB;color-interpolation-filters:linearRGB;solid-color:#000000;solid-opacity:1;fill:#000000;fill-opacity:1;fill-rule:nonzero;stroke-width:1;stroke-linecap:butt;stroke-linejoin:miter;stroke-miterlimit:4;stroke-dasharray:none;stroke-dashoffset:0;stroke-opacity:1;filter:url(#filter4298);color-rendering:auto;image-rendering:auto;shape-rendering:auto;text-rendering:auto;enable-background:accumulate"
       class="logotype-svg"
       inkscape:connector-curvature="0"
       sodipodi:nodetypes="cssccssccccssccsccccccccccccccccccccccccccccccccccccccccccccccccccccccccccccssccsssccssccsccscccccccsccsccccccccccccsccccccccscccccsccsccccccccsscssscscccscscccccccccccccccccscscsss" />
    <path
       id="path4204-9"
       d="m 513.60321,769.18814 0,73.60534 c 0,5.19545 3.42562,9.64606 9.33236,9.64606 l 5.34308,0 -0.0503,-2.25634 c -0.11743,0 -1.94934,0.0503 -5.13841,0.0503 -4.6083,0 -7.07937,-4.01612 -7.07937,-7.44173 l 0,-73.60702 -2.41068,0 z m 326.86567,0 0,73.81336 c 0,5.67021 4.92033,9.43636 10.59054,9.43636 6.49557,0 7.27229,0.11743 7.3914,0 l 0,-2.36538 -7.39476,0 c -4.13522,0 -7.87789,-2.46939 -8.23186,-7.07601 l 0,-50.06056 17.09114,0 0,-2.35867 -17.09114,0 0,-21.3891 -2.35867,0 z m 128.59628,3.50949 c -1.34709,0.0839 -2.7076,0.43617 -3.87855,1.10385 -1.78326,1.01661 -3.18236,2.75122 -3.77455,4.71734 -0.40597,1.34542 -0.39087,2.79484 -0.2617,4.19394 0.14259,1.55679 0.44288,3.06326 0.88912,4.56301 0.33216,1.1072 0.76665,2.18085 1.20785,3.24779 -1.7279,0.0168 -3.46419,0.047 -5.19042,0.0537 -0.41939,0 -3.68564,0.0369 -5.34811,0.5234 -8.79554,2.57844 -14.23088,7.16325 -18.40301,15.30789 l 0.003,-15.82793 -2.36035,0 0,61.28186 2.36538,0 0,-38.74195 c 1.53331,-5.60814 4.36841,-10.51169 8.38788,-14.10003 4.01444,-3.59001 9.20151,-5.84467 15.46222,-6.08121 1.92922,-0.0772 3.99935,-0.0789 5.97721,-0.10569 l 27.46863,59.02888 c -9.33235,21.2616 -9.68465,21.99302 -10.27515,22.6976 -0.8304,0.82872 -1.77823,1.25818 -5.56117,1.25818 l -2.09697,-0.0503 0,2.35867 2.09697,0.0537 c 4.37177,0 6.73547,-0.92602 7.91816,-2.93576 l 0.83879,-1.41419 36.48721,-83.2514 -2.622,0 -25.6367,58.3461 -25.84306,-56.14512 c 1.24979,-0.0168 2.53314,0.0621 3.77455,-0.10401 1.34206,-0.1795 2.61702,-0.71633 3.77454,-1.41588 1.21457,-0.7331 2.30164,-1.63731 3.14546,-2.77806 1.1743,-1.58699 1.78158,-3.58498 1.83527,-5.55781 0.0453,-1.67255 -0.28519,-3.33167 -1.04849,-4.82136 -0.60393,-1.16759 -1.45949,-2.19762 -2.46604,-3.04144 -1.26489,-1.05688 -2.79148,-1.81514 -4.40531,-2.15066 -0.78511,-0.16272 -1.61047,-0.24828 -2.41236,-0.20969 l -0.0503,0 z m 0.73478,1.94264 c 1.30851,0.0168 2.6036,0.49991 3.66886,1.25818 1.0703,0.75491 1.92586,1.82352 2.51637,2.98608 0.73813,1.44607 1.08371,3.10352 0.94783,4.71903 -0.13756,1.61718 -0.72136,3.179 -1.78327,4.40363 -1.48801,1.71952 -3.86513,2.69587 -6.13154,2.51637 l -3.04144,0 -0.99816,-2.20098 c -0.59219,-1.40413 -1.02668,-2.90724 -1.31354,-4.40364 -0.29358,-1.54001 -0.52005,-3.15384 -0.10401,-4.66366 0.41604,-1.51653 1.48968,-2.75123 2.83175,-3.56653 1.02835,-0.62909 2.20265,-1.06526 3.40548,-1.05184 z m -170.53569,14.94049 c -17.24548,0 -23.80145,15.74909 -23.80145,28.14973 l 0,34.13029 2.35867,0 0,-34.13029 c 0,-12.87373 7.02905,-25.79106 21.43943,-25.79106 14.41373,0 21.38909,12.91733 21.38909,25.79273 l 0,34.13197 2.36203,0 0,-34.13364 c 0,-12.40064 -6.50228,-28.14973 -23.74777,-28.14973 z m -328.33522,0.0503 c -17.1247,0 -27.99036,15.34982 -28.46511,31.77329 0,15.70883 12.38722,31.66258 29.51527,31.66258 9.21325,0 20.59728,-5.11158 24.37519,-14.6788 l -2.5667,0 c -3.66214,8.03224 -12.83345,12.31845 -21.80849,12.31845 -15.00256,0 -26.09302,-13.26963 -27.1566,-28.14973 l 56.09479,0 0,-1.25819 c -0.23486,-16.77576 -12.03157,-31.66593 -29.98667,-31.66593 z m 92.68609,0 c -17.12806,0 -27.99204,15.34982 -28.46512,31.77329 0,15.70883 12.43923,31.66258 29.56729,31.66258 9.21324,0 20.54527,-5.11158 24.32485,-14.6788 l -2.51636,0 c -3.66215,8.03224 -12.83346,12.31845 -21.80849,12.31845 -15.00089,0 -26.14503,-13.26963 -27.21029,-28.14973 l 56.14848,0 0,-1.25819 C 593.42061,804.5229 581.57189,789.63273 563.6168,789.63273 Z m 63.43419,0 c -10.03694,0 -17.93665,7.68832 -20.33726,17.0945 -1.1743,4.5932 -1.57189,6.0896 -1.57189,45.13519 l 2.357,0 c 0,-34.36683 0.0906,-36.9352 0.73478,-41.6257 1.50478,-9.91449 8.51369,-18.3443 18.81905,-18.24365 11.0049,0 21.5904,7.08943 20.9697,25.9521 0,5.02099 0.16105,13.66386 0.16105,20.07723 0,7.18674 -0.1577,13.84001 -0.1577,13.84001 l 2.36035,0 c 0,0 0.25164,-22.81001 0,-33.92059 -0.411,-17.89134 9.26022,-25.92693 19.97323,-25.94875 11.16091,0.16775 19.72494,8.5892 20.39261,20.2886 0.33887,5.93359 0.1577,29.52031 0.1577,39.58409 l 2.35867,0 c 0,-39.14624 -0.38249,-40.87917 -1.20786,-45.03285 -1.75474,-8.85425 -10.5184,-17.19516 -21.70112,-17.19516 -11.63232,0 -20.06382,8.45498 -20.8657,17.82593 -0.94447,-9.44979 -10.97973,-17.82425 -22.43758,-17.82425 z m 106.79115,0 c -17.12806,0 -27.99372,15.34982 -28.46512,31.77329 0,15.70883 12.43755,31.66258 29.56561,31.66258 9.21325,0 20.54527,-5.11158 24.32485,-14.6788 l -2.51636,0 c -3.66215,8.03224 -12.83346,12.31845 -21.80849,12.31845 -15.00257,0 -26.14503,-13.26963 -27.21029,-28.14973 l 56.14848,0 0,-1.25819 c -0.23486,-16.77576 -12.08526,-31.66593 -30.03868,-31.66593 z m 159.68512,0 c -7.55915,0 -14.85326,3.65208 -21.2314,8.02217 l 1.41252,1.88726 c 6.85122,-4.84148 13.91046,-7.54909 19.81721,-7.54909 12.16746,0 20.08058,8.71165 20.08058,21.23308 l 0,6.97201 c -3.19075,-1.18102 -10.51169,-3.40548 -20.5503,-3.40548 -10.63248,0 -25.27101,4.22749 -25.27101,17.45518 0,10.51337 8.76869,18.8224 19.87256,18.8224 9.56722,0 19.68972,-3.55646 25.95211,-11.58869 l 0,5.66182 c 0,2.48281 1.52659,4.60159 4.24427,4.71902 l 2.35867,0 0,-2.357 -2.357,0 c -1.30012,0 -1.65073,-0.94447 -1.88727,-2.36202 l 0,-33.91724 c 0,-13.23104 -7.67155,-23.59176 -22.43758,-23.59176 z m -422.59319,2.36202 c 15.70882,0 26.45537,12.25805 27.52063,28.20509 l -53.63211,0 c 0.71297,-13.46422 9.92622,-28.20173 26.11148,-28.20173 z m 92.68608,0 c 15.70883,0 26.45538,12.25805 27.52064,28.20509 l -53.63211,0 c 0.71129,-13.46422 9.92622,-28.20341 26.1098,-28.20341 z m 170.22031,0 c 15.70882,0 26.45873,12.25805 27.52231,28.20509 l -53.63211,0 c 0.70962,-13.46422 9.92622,-28.20341 26.1098,-28.20341 z m 159.21205,27.15661 c 6.85122,0 13.81652,1.07029 20.55031,3.66886 l 0,12.16243 c 0,1.41755 -0.54857,3.05318 -1.7279,4.82303 -4.84484,7.56083 -15.24582,10.90424 -24.22421,10.90424 -9.09246,0 -17.50886,-6.53751 -17.50886,-16.46037 0,-11.45785 12.87037,-15.0982 22.91066,-15.0982 z"
       style="color:#000000;text-align:start;clip-rule:nonzero;display:inline;overflow:visible;visibility:visible;opacity:0.3;isolation:auto;mix-blend-mode:normal;color-interpolation:sRGB;color-interpolation-filters:linearRGB;solid-color:#000000;solid-opacity:1;fill:#000000;fill-opacity:1;fill-rule:nonzero;stroke-width:1;stroke-linecap:butt;stroke-linejoin:miter;stroke-miterlimit:4;stroke-dasharray:none;stroke-dashoffset:0;stroke-opacity:1;filter:url(#filter4288);color-rendering:auto;image-rendering:auto;shape-rendering:auto;text-rendering:auto;enable-background:accumulate"
       class="logotype-svg"
       inkscape:connector-curvature="0"
       sodipodi:nodetypes="cssccssccccssccsccccccccccccccccccccccccccccccccccccccccccccccccccccccccccccssccsssccssccsccscccccccsccsccccccccccccsccccccccscccccsccsccccccccsscssscscccscscccccccccccccccccscscsss" />
    <path
       id="path4204"
       d="m 513.60321,767.18814 0,73.60534 c 0,5.19545 3.42562,9.64606 9.33236,9.64606 l 5.34308,0 -0.0503,-2.25634 c -0.11743,0 -1.94934,0.0503 -5.13841,0.0503 -4.6083,0 -7.07937,-4.01612 -7.07937,-7.44173 l 0,-73.60702 -2.41068,0 z m 326.86567,0 0,73.81336 c 0,5.67021 4.92033,9.43636 10.59054,9.43636 6.49557,0 7.27229,0.11743 7.3914,0 l 0,-2.36538 -7.39476,0 c -4.13522,0 -7.87789,-2.46939 -8.23186,-7.07601 l 0,-50.06056 17.09114,0 0,-2.35867 -17.09114,0 0,-21.3891 -2.35867,0 z m 128.59628,3.50949 c -1.34709,0.0839 -2.7076,0.43617 -3.87855,1.10385 -1.78326,1.01661 -3.18236,2.75122 -3.77455,4.71734 -0.40597,1.34542 -0.39087,2.79484 -0.2617,4.19394 0.14259,1.55679 0.44288,3.06326 0.88912,4.56301 0.33216,1.1072 0.76665,2.18085 1.20785,3.24779 -1.7279,0.0168 -3.46419,0.047 -5.19042,0.0537 -0.41939,0 -3.68564,0.0369 -5.34811,0.5234 -8.79554,2.57844 -14.23088,7.16325 -18.40301,15.30789 l 0.003,-15.82793 -2.36035,0 0,61.28186 2.36538,0 0,-38.74195 c 1.53331,-5.60814 4.36841,-10.51169 8.38788,-14.10003 4.01444,-3.59001 9.20151,-5.84467 15.46222,-6.08121 1.92922,-0.0772 3.99935,-0.0789 5.97721,-0.10569 l 27.46863,59.02888 c -9.33235,21.2616 -9.68465,21.99302 -10.27515,22.6976 -0.8304,0.82872 -1.77823,1.25818 -5.56117,1.25818 l -2.09697,-0.0503 0,2.35867 2.09697,0.0537 c 4.37177,0 6.73547,-0.92602 7.91816,-2.93576 l 0.83879,-1.41419 36.48721,-83.2514 -2.622,0 -25.6367,58.3461 -25.84306,-56.14512 c 1.24979,-0.0168 2.53314,0.0621 3.77455,-0.10401 1.34206,-0.1795 2.61702,-0.71633 3.77454,-1.41588 1.21457,-0.7331 2.30164,-1.63731 3.14546,-2.77806 1.1743,-1.58699 1.78158,-3.58498 1.83527,-5.55781 0.0453,-1.67255 -0.28519,-3.33167 -1.04849,-4.82136 -0.60393,-1.16759 -1.45949,-2.19762 -2.46604,-3.04144 -1.26489,-1.05688 -2.79148,-1.81514 -4.40531,-2.15066 -0.78511,-0.16272 -1.61047,-0.24828 -2.41236,-0.20969 l -0.0503,0 z m 0.73478,1.94264 c 1.30851,0.0168 2.6036,0.49991 3.66886,1.25818 1.0703,0.75491 1.92586,1.82352 2.51637,2.98608 0.73813,1.44607 1.08371,3.10352 0.94783,4.71903 -0.13756,1.61718 -0.72136,3.179 -1.78327,4.40363 -1.48801,1.71952 -3.86513,2.69587 -6.13154,2.51637 l -3.04144,0 -0.99816,-2.20098 c -0.59219,-1.40413 -1.02668,-2.90724 -1.31354,-4.40364 -0.29358,-1.54001 -0.52005,-3.15384 -0.10401,-4.66366 0.41604,-1.51653 1.48968,-2.75123 2.83175,-3.56653 1.02835,-0.62909 2.20265,-1.06526 3.40548,-1.05184 z m -170.53569,14.94049 c -17.24548,0 -23.80145,15.74909 -23.80145,28.14973 l 0,34.13029 2.35867,0 0,-34.13029 c 0,-12.87373 7.02905,-25.79106 21.43943,-25.79106 14.41373,0 21.38909,12.91733 21.38909,25.79273 l 0,34.13197 2.36203,0 0,-34.13364 c 0,-12.40064 -6.50228,-28.14973 -23.74777,-28.14973 z m -328.33522,0.0503 c -17.1247,0 -27.99036,15.34982 -28.46511,31.77329 0,15.70883 12.38722,31.66258 29.51527,31.66258 9.21325,0 20.59728,-5.11158 24.37519,-14.6788 l -2.5667,0 c -3.66214,8.03224 -12.83345,12.31845 -21.80849,12.31845 -15.00256,0 -26.09302,-13.26963 -27.1566,-28.14973 l 56.09479,0 0,-1.25819 c -0.23486,-16.77576 -12.03157,-31.66593 -29.98667,-31.66593 z m 92.68609,0 c -17.12806,0 -27.99204,15.34982 -28.46512,31.77329 0,15.70883 12.43923,31.66258 29.56729,31.66258 9.21324,0 20.54527,-5.11158 24.32485,-14.6788 l -2.51636,0 c -3.66215,8.03224 -12.83346,12.31845 -21.80849,12.31845 -15.00089,0 -26.14503,-13.26963 -27.21029,-28.14973 l 56.14848,0 0,-1.25819 C 593.42061,802.5229 581.57189,787.63273 563.6168,787.63273 Z m 63.43419,0 c -10.03694,0 -17.93665,7.68832 -20.33726,17.0945 -1.1743,4.5932 -1.57189,6.0896 -1.57189,45.13519 l 2.357,0 c 0,-34.36683 0.0906,-36.9352 0.73478,-41.6257 1.50478,-9.91449 8.51369,-18.3443 18.81905,-18.24365 11.0049,0 21.5904,7.08943 20.9697,25.9521 0,5.02099 0.16105,13.66386 0.16105,20.07723 0,7.18674 -0.1577,13.84001 -0.1577,13.84001 l 2.36035,0 c 0,0 0.25164,-22.81001 0,-33.92059 -0.411,-17.89134 9.26022,-25.92693 19.97323,-25.94875 11.16091,0.16775 19.72494,8.5892 20.39261,20.2886 0.33887,5.93359 0.1577,29.52031 0.1577,39.58409 l 2.35867,0 c 0,-39.14624 -0.38249,-40.87917 -1.20786,-45.03285 -1.75474,-8.85425 -10.5184,-17.19516 -21.70112,-17.19516 -11.63232,0 -20.06382,8.45498 -20.8657,17.82593 -0.94447,-9.44979 -10.97973,-17.82425 -22.43758,-17.82425 z m 106.79115,0 c -17.12806,0 -27.99372,15.34982 -28.46512,31.77329 0,15.70883 12.43755,31.66258 29.56561,31.66258 9.21325,0 20.54527,-5.11158 24.32485,-14.6788 l -2.51636,0 c -3.66215,8.03224 -12.83346,12.31845 -21.80849,12.31845 -15.00257,0 -26.14503,-13.26963 -27.21029,-28.14973 l 56.14848,0 0,-1.25819 c -0.23486,-16.77576 -12.08526,-31.66593 -30.03868,-31.66593 z m 159.68512,0 c -7.55915,0 -14.85326,3.65208 -21.2314,8.02217 l 1.41252,1.88726 c 6.85122,-4.84148 13.91046,-7.54909 19.81721,-7.54909 12.16746,0 20.08058,8.71165 20.08058,21.23308 l 0,6.97201 c -3.19075,-1.18102 -10.51169,-3.40548 -20.5503,-3.40548 -10.63248,0 -25.27101,4.22749 -25.27101,17.45518 0,10.51337 8.76869,18.8224 19.87256,18.8224 9.56722,0 19.68972,-3.55646 25.95211,-11.58869 l 0,5.66182 c 0,2.48281 1.52659,4.60159 4.24427,4.71902 l 2.35867,0 0,-2.357 -2.357,0 c -1.30012,0 -1.65073,-0.94447 -1.88727,-2.36202 l 0,-33.91724 c 0,-13.23104 -7.67155,-23.59176 -22.43758,-23.59176 z m -422.59319,2.36202 c 15.70882,0 26.45537,12.25805 27.52063,28.20509 l -53.63211,0 c 0.71297,-13.46422 9.92622,-28.20173 26.11148,-28.20173 z m 92.68608,0 c 15.70883,0 26.45538,12.25805 27.52064,28.20509 l -53.63211,0 c 0.71129,-13.46422 9.92622,-28.20341 26.1098,-28.20341 z m 170.22031,0 c 15.70882,0 26.45873,12.25805 27.52231,28.20509 l -53.63211,0 c 0.70962,-13.46422 9.92622,-28.20341 26.1098,-28.20341 z m 159.21205,27.15661 c 6.85122,0 13.81652,1.07029 20.55031,3.66886 l 0,12.16243 c 0,1.41755 -0.54857,3.05318 -1.7279,4.82303 -4.84484,7.56083 -15.24582,10.90424 -24.22421,10.90424 -9.09246,0 -17.50886,-6.53751 -17.50886,-16.46037 0,-11.45785 12.87037,-15.0982 22.91066,-15.0982 z"
       style="text-align:start;fill:#ffffff"
       class="logotype-svg"
       inkscape:connector-curvature="0"
       sodipodi:nodetypes="cssccssccccssccsccccccccccccccccccccccccccccccccccccccccccccccccccccccccccccssccsssccssccsccscccccccsccsccccccccccccsccccccccscccccsccsccccccccsscssscscccscscccccccccccccccccscscsss" />
    <text
       xml:space="preserve"
       style="color:#000000;font-style:normal;font-variant:normal;font-weight:300;font-stretch:normal;font-size:65px;line-height:125%;font-family:'Open Sans';-inkscape-font-specification:'Open Sans Light';letter-spacing:0px;word-spacing:0px;clip-rule:nonzero;display:inline;overflow:visible;visibility:visible;opacity:0.3;isolation:auto;mix-blend-mode:normal;color-interpolation:sRGB;color-interpolation-filters:linearRGB;solid-color:#000000;solid-opacity:1;fill:#000000;fill-opacity:1;fill-rule:nonzero;stroke:none;stroke-width:1;stroke-linecap:butt;stroke-linejoin:miter;stroke-miterlimit:4;stroke-dasharray:none;stroke-dashoffset:0;stroke-opacity:1;filter:url(#filter4288);color-rendering:auto;image-rendering:auto;shape-rendering:auto;text-rendering:auto;enable-background:accumulate"
       x="726.26001"
       y="948.99829"
       id="text4455-8-2"
       sodipodi:linespacing="125%"><tspan
         sodipodi:role="line"
         id="tspan4457-3-6"
         x="726.26001"
         y="948.99829"
         style="color:#000000;font-style:normal;font-variant:normal;font-weight:300;font-stretch:normal;font-size:65px;font-family:'Open Sans';-inkscape-font-specification:'Open Sans Light';text-align:center;letter-spacing:0px;text-anchor:middle;clip-rule:nonzero;display:inline;overflow:visible;visibility:visible;isolation:auto;mix-blend-mode:normal;color-interpolation:sRGB;color-interpolation-filters:linearRGB;solid-color:#000000;solid-opacity:1;fill:#000000;fill-opacity:1;fill-rule:nonzero;stroke-width:1;stroke-linecap:butt;stroke-linejoin:miter;stroke-miterlimit:4;stroke-dasharray:none;stroke-dashoffset:0;stroke-opacity:1;filter:url(#filter4288);color-rendering:auto;image-rendering:auto;shape-rendering:auto;text-rendering:auto;enable-background:accumulate">Developer Home</tspan></text>
    <text
       xml:space="preserve"
       style="font-style:normal;font-variant:normal;font-weight:300;font-stretch:normal;font-size:65px;line-height:125%;font-family:'Open Sans';-inkscape-font-specification:'Open Sans Light';letter-spacing:0px;word-spacing:0px;opacity:1;fill:#babdcd;fill-opacity:1;stroke:none;stroke-width:1px;stroke-linecap:butt;stroke-linejoin:miter;stroke-opacity:1"
       x="726.26001"
       y="947.99841"
       id="text4455-8"
       sodipodi:linespacing="125%"><tspan
         sodipodi:role="line"
         id="tspan4457-3"
         x="726.26001"
         y="947.99841"
         style="font-style:normal;font-variant:normal;font-weight:300;font-stretch:normal;font-size:65px;font-family:'Open Sans';-inkscape-font-specification:'Open Sans Light';text-align:center;letter-spacing:0px;text-anchor:middle;fill:#babdcd;fill-opacity:1">Developer Home</tspan></text>
  </g>
</svg>
