<?xml version="1.0" encoding="UTF-8" standalone="no"?>
<!-- Created with Inkscape (http://www.inkscape.org/) -->

<svg
   xmlns:dc="http://purl.org/dc/elements/1.1/"
   xmlns:cc="http://creativecommons.org/ns#"
   xmlns:rdf="http://www.w3.org/1999/02/22-rdf-syntax-ns#"
   xmlns:svg="http://www.w3.org/2000/svg"
   xmlns="http://www.w3.org/2000/svg"
   xmlns:sodipodi="http://sodipodi.sourceforge.net/DTD/sodipodi-0.dtd"
   xmlns:inkscape="http://www.inkscape.org/namespaces/inkscape"
   width="2in"
   height="2in"
   viewBox="0 0 50.800001 50.800001"
   version="1.1"
   id="svg8"
   sodipodi:docname="sticker.svg"
   inkscape:version="0.92.3 (2405546, 2018-03-11)"
   inkscape:export-filename="/home/cassidyjames/Pictures/vala-sticker-hex.png"
   inkscape:export-xdpi="300"
   inkscape:export-ydpi="300">
  <defs
     id="defs2">
    <clipPath
       clipPathUnits="userSpaceOnUse"
       id="clipPath18">
      <path
         d="M 0,802 H 792 V 0 H 0 Z"
         id="path16"
         inkscape:connector-curvature="0" />
    </clipPath>
  </defs>
  <sodipodi:namedview
     id="base"
     pagecolor="#ffffff"
     bordercolor="#666666"
     borderopacity="1.0"
     inkscape:pageopacity="0.0"
     inkscape:pageshadow="2"
     inkscape:zoom="3.959798"
     inkscape:cx="55.708268"
     inkscape:cy="96.127517"
     inkscape:document-units="mm"
     inkscape:current-layer="layer4"
     showgrid="false"
     units="in"
     borderlayer="true"
     inkscape:window-width="2560"
     inkscape:window-height="1377"
     inkscape:window-x="0"
     inkscape:window-y="30"
     inkscape:window-maximized="1"
     inkscape:measure-start="12.8616,48"
     inkscape:measure-end="179.138,48" />
  <metadata
     id="metadata5">
    <rdf:RDF>
      <cc:Work
         rdf:about="">
        <dc:format>image/svg+xml</dc:format>
        <dc:type
           rdf:resource="http://purl.org/dc/dcmitype/StillImage" />
        <dc:title></dc:title>
      </cc:Work>
    </rdf:RDF>
  </metadata>
  <g
     inkscape:groupmode="layer"
     id="layer2"
     inkscape:label="Circle"
     style="display:none">
    <circle
       style="fill:#452981;fill-opacity:1;stroke-width:0.64062977"
       id="path4042"
       cx="25.4"
       cy="25.4"
       r="25.4" />
  </g>
  <g
     inkscape:groupmode="layer"
     id="layer3"
     inkscape:label="Hex"
     style="display:inline">
    <path
       sodipodi:type="star"
       id="path41"
       sodipodi:sides="6"
       sodipodi:cx="25.4"
       sodipodi:cy="25.4"
       sodipodi:r1="25.4"
       sodipodi:r2="21.997044"
       sodipodi:arg1="1.5707963"
       sodipodi:arg2="2.0943951"
       inkscape:flatsided="true"
       inkscape:rounded="0"
       inkscape:randomized="0"
       d="M 25.4,50.799999 3.402955,38.1 3.4029544,12.7 25.399999,0 l 21.997045,12.699999 10e-7,25.4 z"
       style="fill:#452981;fill-opacity:1;stroke-width:0.2149101" />
    <g
       inkscape:groupmode="layer"
       id="layer4"
       inkscape:label="Bleed"
       style="display:inline">
      <path
         style="display:inline;fill:#452981;fill-opacity:1;stroke-width:0.24177387"
         d="M 25.4,53.975 0.65332343,39.687501 0.65332266,11.1125 25.399999,-3.1750011 50.146676,11.112499 l 10e-7,28.575 z"
         inkscape:randomized="0"
         inkscape:rounded="0"
         inkscape:flatsided="true"
         sodipodi:arg2="2.0943951"
         sodipodi:arg1="1.5707963"
         sodipodi:r2="24.746675"
         sodipodi:r1="28.575001"
         sodipodi:cy="25.4"
         sodipodi:cx="25.4"
         sodipodi:sides="6"
         id="path4514"
         sodipodi:type="star" />
    </g>
  </g>
  <g
     inkscape:label="Design"
     inkscape:groupmode="layer"
     id="layer1"
     transform="translate(0,-246.19998)">
    <g
       transform="matrix(0.05388767,0,0,-0.05388767,3.9358665,293.02572)"
       id="g12">
      <g
         id="g14"
         clip-path="url(#clipPath18)">
        <g
           id="g20"
           transform="translate(180.1001,619.8999)">
          <path
             d="m 0,0 c 0,0.3 0.3,0.4 0.5,0.3 1.1,-0.5 2.1,-1.7 2.6,-2.5 0.8,-1.3 1,-2.7 1,-4.2 C 1.8,-5.2 -0.1,-2.6 0,0 m -19.5,-20.1 c -0.8,-2.9 -4.6,-9.3 -8.2,-7.1 -3.8,2.3 -3.1,7.6 -2.6,10.5 0.8,4.6 3.4,9.1 6,11.5 1.4,1.3 3.3,2.3 4.9,2.1 1.6,-0.3 3.1,-1.2 3.8,-3 v -0.1 c -2.7,-4.9 -2.6,-9.1 -3.9,-13.9 M -55,-21.8 c 0.1,0.1 -0.5,1.8 -0.5,2 -0.1,0.8 -0.2,1.6 -0.2,2.4 0,1.6 0.2,3.7 0.7,5.2 1.1,2.9 2.6,5.7 5.2,7.4 2.7,1.7 3.3,-1.2 2.9,-3.1 -1.4,-5.7 -4.5,-9.8 -8.1,-13.9 M -73,7.9 c 1.4,5.5 3.9,12.2 6,12 1.7,-0.2 1.7,-5.2 1.8,-6.3 0.4,-7.1 -1.5,-15.3 -7.2,-20 -1.3,-1.1 -2.8,-1.9 -4.3,-2.2 1,5.8 2.5,11.9 3.7,16.5 M 164.8,-35 c -1.101,0.4 -2.7,0.2 -3.5,-0.7 -0.9,-1.1 -1.9,-2.2 -2.801,-3.3 0.4,10.2 -0.899,21.4 -9.899,27.2 -6.2,4 -14,4.1 -21.101,3 -6.6,-1 -13,-3.4 -19.1,-6.1 -11.9,-5.2 -23.7,-12.6 -36.9,-13.8 -2.8,-0.3 -6.9,-0.8 -9.2,1 -4.5,3.6 -1.8,10.7 -0.9,15.1 1.3,6.3 0.9,11.5 -4.5,13.1 -3.4,1 -7.6,0.2 -9.9,-2.4 -1.1,-1.4 -2,-3 -2.9,-4.5 -1.1,-1.8 -2.2,-3.7 -3.3,-5.5 -0.7,-1.2 -1.4,-2.3 -2.1,-3.5 l 2.8,13.1 c 0.3,1.5 -1.1,2.2 -2.4,2.2 -1.8,-0.1 -2.8,-1.6 -3.6,-3.1 -2.4,-4.4 -4.8,-8.8 -7.2,-13.1 -2.1,-3.8 -3.9,-8.6 -7.6,-11.2 -0.4,-0.3 -1,-0.6 -1.3,-0.7 l -0.2,-0.1 c -1.9,2.3 -0.5,6.8 0,9.4 0.9,5.1 2.3,10 4.1,14.8 0.3,0.9 -0.5,1.7 -1.2,2 -1,0.4 -2.2,0.2 -3.1,-0.4 -2.7,-1.6 -6.1,-3.8 -9.5,-4.4 v 1.4 c -0.3,4.5 -3.2,8.5 -7.7,9.5 -2,0.4 -5.5,0.4 -6.3,-1.9 -0.7,-1.7 -0.5,-3.8 0.2,-5.5 1.4,-3.5 4.7,-5.9 8.3,-6.8 0,-0.1 0,-0.2 -0.1,-0.3 -1.1,-4.7 -2.8,-9.5 -5.6,-13.4 -1.1,-1.6 -2.5,-3.1 -4.2,-4.1 -1.5,-0.8 -2.5,-1 -4.1,-0.4 -3.3,1.2 -4.2,4.8 -4.2,8 0.1,4.7 1.8,9.3 3.9,13.4 0.2,0.5 0.1,0.9 -0.2,1.2 0.1,0.2 0.1,0.5 0,0.8 -1.4,5.9 -8.4,7.1 -13.3,5.5 -6.8,-2.1 -9.5,-9 -11.6,-15.3 -1,-3.2 -2.1,-6.4 -3.9,-9.2 -1.5,-2.3 -4.5,-4.6 -7.3,-4.9 -2.4,-0.2 -4.5,1.1 -6.1,3 0.9,0.8 1.7,1.7 2.5,2.6 3.1,3.6 5.5,7.7 7,12.2 1.5,4.5 1,11.5 -4,11.4 -11,-0.3 -15,-14.6 -12.3,-23.3 0.2,-0.8 0.5,-1.6 0.3,-2.3 -0.2,-0.9 -1,-1.5 -1.8,-2 -3.8,-2.4 -7.8,-2.8 -12.1,-2.8 -1.2,0 -2.5,0.1 -3.5,0.8 -2.7,1.7 -2.9,4.9 -2.7,6.9 0.3,3.4 1,6.7 1.8,10 -0.1,-0.2 3.3,0.3 3.7,0.4 1.5,0.6 2.9,1.4 4.2,2.4 9,6.7 10.7,20 7.7,30.1 -0.1,0.2 -0.1,0.4 -0.2,0.6 v 0.1 c -0.6,1.9 -2.7,3.8 -5.1,3.6 -1.1,-0.1 -2.1,-0.9 -2.9,-1.5 -3.4,-3 -5.3,-7.8 -6.6,-12 -2.1,-6.3 -3.4,-13.1 -4.9,-19.5 -0.3,0.1 -0.6,0.2 -0.9,0.4 -2.3,1.1 -4.3,2.8 -6.6,3.9 -2.3,1.1 -4.7,1.7 -7.2,1.8 -5.3,0.2 -10.7,-2.1 -14.1,-6.2 -0.8,-1 -1.4,-3.4 1,-3.7 1.2,-0.2 2.7,0.3 3.5,1.3 2.6,3.2 6.9,5.7 11,4.9 2.3,-0.4 4.2,-1.7 6.1,-3 2,-1.3 4,-2.4 6.3,-3 -0.4,-2 -0.8,-4 -1.1,-6 -0.7,-4.2 -1.4,-10 1.6,-13.6 2.3,-2.8 8.6,-2.9 12,-2.7 5,0.3 10.5,2.1 14,5.6 0.5,-0.5 1.1,-1 1.8,-1.5 6.1,-4.3 14,-1.9 18.2,3.8 0.2,0.3 0.4,0.6 0.6,0.9 0.3,-2.1 3,-4.7 5.1,-5.5 5.1,-2 9,0.5 12.2,4.4 1.5,-3 4.4,-4.9 7.7,-5.5 3.8,-0.7 7.5,0.8 10.3,3.3 2.9,2.7 5,6.2 6.6,9.8 1.1,2.6 2.2,5.5 2.7,8.5 2.6,0.3 5.1,1.1 7.5,2.2 -0.9,-3 -1.7,-6 -2.3,-9 -0.5,-2.4 -0.9,-4.9 -1.1,-7.3 -0.2,-2.1 0.1,-4.2 1.7,-5.7 3.1,-2.9 7.8,-1.3 10.6,1.2 3.4,2.9 5.2,7.2 7.3,11.1 0.1,0.2 0.2,0.3 0.3,0.5 -0.8,-3.7 -1.6,-7.4 -2.4,-11.1 -0.5,-2.4 3.7,-3 4.7,-1.3 0,0 13,21.5 13,21.6 2,3.4 4.3,5.4 7.7,4 2.5,-1.1 0.7,-7.3 -0.1,-10.4 -1.2,-4.9 -2.2,-9.9 1.6,-14.2 5,-5.6 15.7,-3.4 22,-1.8 8.4,2.1 16.1,5.9 23.9,9.6 5.8,2.7 11.6,5.5 17.8,7.4 6,1.8 12.7,3 18.9,1.5 11.3,-2.7 13.399,-14.2 13.3,-24.6 -0.5,1.1 -1.101,2.2 -1.601,3.4 -1,2.1 -6.1,1.2 -4.899,-1.1 1.8,-3.7 3.3,-7.4 5.899,-10.6 0.301,-0.4 0.7,-0.8 1.101,-1.1 1.7,-1.1 4.5,0.3 5.6,1.6 2.101,2.5 4.2,5 6.3,7.5 0.601,0.4 -0.299,1.5 -1.199,1.9"
             style="fill:#ffffff;fill-opacity:1;fill-rule:nonzero;stroke:none"
             id="path22"
             inkscape:connector-curvature="0" />
        </g>
        <g
           id="g24"
           transform="translate(463.7998,385.2002)">
          <path
             d="m 0,0 c -1.898,-0.2 -3.7,0 -5.3,1 -1.7,1.1 -3,3.398 -2.8,5.5 v 0.2 c 0.1,0.5 2.201,0.899 2.6,1 1.102,0.198 2.102,0 3.102,-0.601 1.299,-0.899 1.698,-2.1 2,-3.6 C -0.3,3.2 0.4,0 0,0 M -0.5,-4.601 C -1.1,-7.799 -2.2,-10.999 -4.398,-13.4 -6,-15.101 -8.7,-16.5 -11,-15.7 c -2.6,0.9 -3.7,4.099 -3.7,6.599 -0.1,3.602 1.5,7 3,10.102 0.7,-0.9 1.5,-1.8 2.4,-2.5 2.6,-2 5.8,-2.5 9,-2.4 C -0.399,-4.2 -0.5,-4.4 -0.5,-4.601 m -42.899,7 c -0.102,-1.198 -0.201,-2.5 -0.302,-3.799 -0.1,-1.701 -3.399,-5.399 -4.399,-6.8 -2.5,-3.3 -6.7,-7.1 -10.7,-4.8 -3.8,2.2 -2.9,7 -1.8,10.5 1.399,4.3 4.399,8.7 8.6,10.7 1.9,0.899 3.7,1.198 5.7,0.3 1.5,-0.602 2.7,-1.9 3.1,-3.4 0,-1 -0.1,-1.8 -0.199,-2.701 m 6.699,10.5 c 1,5.802 2.4,11.602 4.2,17.201 0.9,2.8 3.5,9.5 4.602,11.3 0.698,1.1 1.799,3.3 3.099,3.3 0.8,0 1.2,-0.4 0.7,-3.1 -0.5,-2.6 -1.799,-5.3 -2.799,-7.7 -1.901,-5 -4.102,-9.9 -6.201,-14.8 -0.9,-2.1 -1.9,-4.201 -2.9,-6.3 C -36.2,12.2 -36.7,12.399 -36.7,12.899 M 93.5,-18.8 c -1.2,0.5 -2.8,0.3 -3.7,-0.7 -1.6,-1.8 -3.3,-3.7 -4.899,-5.5 l -0.299,-0.3 c 1.299,6.1 2.398,12.3 1,18.5 -1.302,5.899 -5,11 -10.701,13.399 -5.7,2.5 -12.2,2.2 -18.299,1.799 C 49.3,7.898 42.102,7.2 34.8,6.299 c -7.3,-1 -14.5,-2.2 -21.6,-3.6 -2.599,-0.5 -5.2,-1.2 -7.9,-1.7 0,1.1 -0.1,2.1 -0.399,3.2 -0.601,3.1 -2.299,5.698 -5.101,7.3 -2.698,1.5 -6.1,1.898 -9,0.8 -1.698,-0.7 -3.1,-1.901 -3.8,-3.5 -1,-0.8 -1.898,-1.601 -2.8,-2.5 -4.599,-5.101 -6.2,-12.101 -10.8,-17.101 -3.5,-3.699 -10.101,-4.899 -11.601,1.301 -0.6,2.398 -0.5,5 -0.3,7.5 6.602,10.699 11.602,22.398 16.2,34 0.7,1.9 1.5,3.8 2.2,5.7 0.8,2 1.701,4.1 1.5,6.3 -0.299,4.2 -4.4,6.9 -8.4,5.7 -3.8,-1.2 -5.3,-5.5 -6.8,-8.8 -1.8,-4 -3.4,-8.2 -4.7,-12.4 -1.7,-5.6 -3.1,-11.3 -4,-17.102 -1.1,0.602 -2.3,1.102 -3.5,1.301 -5,1.101 -9.898,-1.1 -13.8,-4.1 -4.5,-3.5 -8.2,-8.1 -12.4,-12 -3.399,-3.1 -6.8,-6.6 -10.899,-8.9 -2.5,-1.5 -5.2,-2.199 -8.101,-2.801 -2.198,-0.398 -6.198,-0.799 -8,1.102 -0.3,0.3 -0.5,0.8 -0.8,1.1 -1,1.299 -3.398,0.799 -4.398,-0.5 -2.701,-3.399 3.199,-5 5.398,-5.399 3.7,-0.7 7.5,-0.601 11.2,0.3 9,2.1 15.101,9.2 21.601,15.2 -1.101,-3.7 -1.101,-7.5 1.399,-11.2 2,-2.9 5.401,-4.602 9,-4.3 4.2,0.3 7.401,3.198 10,6.399 0.8,1 1.5,1.9 2.3,2.9 v -0.102 c 0.7,-3.799 3.2,-6.599 6.9,-7.699 3.3,-0.899 6.899,-0.5 10,1 2.701,1.301 4.8,3.4 6.5,5.801 0.3,-2.102 1.1,-4.102 2.8,-5.9 4.901,-5 13.3,-3.399 17.6,1.5 2.2,2.5 3.4,5.601 4.2,8.799 0.2,1.102 0.5,2.102 0.602,3.201 2.599,0.5 5.199,1.2 7.5,1.7 15.599,3 31.599,5.3 47.599,6 7,0.3 14.5,-0.401 18.3,-7.2 3.7,-6.6 2.602,-14.3 1.102,-21.399 -0.802,2 -1.602,4.1 -2.401,6.1 -0.899,2.2 -6.2,1.5 -5.2,-1 l 3.5,-9 c 1.102,-2.7 2.301,-5.401 5.602,-5.5 3.099,0 5,2.4 6.898,4.5 2.2,2.4 4.301,4.8 6.5,7.2 0.799,1.1 -0.001,2.3 -1.001,2.7"
             style="fill:#ffffff;fill-opacity:1;fill-rule:nonzero;stroke:none"
             id="path26"
             inkscape:connector-curvature="0" />
        </g>
        <g
           id="g28"
           transform="translate(193.1001,477)"
           style="fill:#e4c6fa;fill-opacity:1">
          <path
             d="M 0,0 C -0.3,-10.6 -0.7,-21.2 -1.3,-31.7 11.9,-7.5 20.2,10.1 31.7,35.1 38.9,50.7 45.6,63.6 52,74.8 57.5,84.4 66.7,74 63.7,67.3 53.3,43.8 41.5,20.1 30.1,-3.1 18.7,-26.3 9.4,-48.3 -1.5,-73 -4.8,-80.6 -9,-90.4 -17.2,-90.9 c -5.5,-0.3 -10.4,4.2 -12.4,9.301 -2,5.1 -1.8,10.899 -1.6,16.399 1.7,41.7 3.5,83.3 5.2,125 0.2,3.7 0.1,8.1 -2.9,10.4 -2.5,2 -6.2,1.6 -9.4,0.9 -18.2,-4.3 -34,-17.9 -40.9,-35.3 -6.9,-17.4 -4.7,-38.1 5.6,-53.7 1,-1.5 2.1,-3 1.9,-4.8 -0.2,-2.4 -2.6,-4.1 -4.9,-4.2 -2.3,-0.1 -4.6,0.9 -6.6,2.1 -15.2,8.8 -23.7,27 -22.8,44.6 0.9,17.5 10.5,34 24.1,45.1 13.6,11.1 30.8,17.2 48.3,19.2 10.2,1.2 22,0.4 28.5,-7.5 C 0,70.5 0.3,61.8 0.4,53.9 0.7,36 0.5,18 0,0"
             style="fill:#e4c6fa;fill-opacity:1;fill-rule:nonzero;stroke:none"
             id="path30"
             inkscape:connector-curvature="0" />
        </g>
        <g
           id="g32"
           transform="translate(236.1001,454.7998)"
           style="fill:#e4c6fa;fill-opacity:1">
          <path
             d="m 0,0 c 0.1,2.3 2.1,5.9 3.1,8 1.9,4.1 3.9,7.6 5.7,11.8 3.7,8.2 7.6,16.4 11.6,24.5 4.8,9.8 9.9,19.5 15.1,29 2.7,4.9 5.4,9.9 8.3,14.7 2.4,4 3.4,7.7 7.4,10.2 5.1,3.3 13,4.6 14.8,-2.1 C 67.2,91.6 66.3,86 65.9,81.4 64.9,69.3 61.2,10.5 61.6,-2.2 61.7,-6.5 60.9,-9.7 52.5,-9.1 48,-8.8 50.6,15 50.5,21.7 50.3,36.5 51.8,67.7 51,67.6 50.2,67.5 45.7,57.6 43.9,54.2 43.1,52.7 34.2,35 35,34.8 c 1.7,-0.5 3.6,0 5.2,0.2 1.5,0.2 4.9,0.7 6.2,-0.2 0.9,-0.6 1.6,-3.1 1,-4 C 47.1,30.4 46.7,30.2 46.3,30 42.7,28.5 38.9,28.4 35.1,28.1 32.8,27.9 31.2,27.9 30.8,27 27,19 20.2,-9.7 6.6,-6.6 4.4,-6.1 2.1,-4.6 0.9,-2.7 0.2,-1.5 0,-0.7 0,0"
             style="fill:#e4c6fa;fill-opacity:1;fill-rule:nonzero;stroke:none"
             id="path34"
             inkscape:connector-curvature="0" />
        </g>
        <g
           id="g36"
           transform="translate(397.5,508.8999)"
           style="fill:#e4c6fa;fill-opacity:1">
          <path
             d="m 0,0 c -0.2,-0.7 -0.5,-1.4 -0.7,-2.1 -1,-2.9 -3.7,-12.6 -4.6,-16.1 2.899,0.7 5.3,1.2 8.3,1.6 2.3,0.3 3.7,0.6 4.7,0.8 0.5,0.2 0.399,0 0.399,3.6 C 8.099,-10 7.7,-7.3 7.7,-5.1 7.599,-3.5 7.599,15.1 5.3,14.5 4.3,14.2 3,8.5 2.6,7.4 1.7,4.8 0.8,2.4 0,0 m 3,43.5 c 1.8,3.1 8.8,3.1 9.8,-2.6 2.101,-12.1 3.3,-24.4 5.3,-36.5 1.801,-10.5 2.801,-21.2 3.601,-31.8 0.7,-10.3 0.2,-21.3 2.1,-31.4 0.9,-4.7 -5.1,-5.3 -8.5,-4.2 -7.1,2.4 -7.7,12.1 -7.8,18.3 0,1.5 0.8,22.3 0.3,22.4 -0.7,0.2 -2.8,0 -4.2,-0.2 -2.6,-0.4 -5.3,-1.2 -7.6,-2.4 -1.7,-0.9 -3.4,-2.4 -4.1,-4.6 -2.4,-7.8 -5.9,-15.4 -9.5,-22.7 -2.301,-4.6 -6.801,-11.6 -12.5,-12.4 -1.101,-0.2 -2.2,-0.1 -3.2,0.1 -2.2,0.5 -3.4,2.8 -2.8,4.9 0.8,2.4 1.6,4.8 2.699,7.1 6.301,13 9.9,27.2 14.5,40.8 5,14.8 10.7,29.5 16.7,44 0.7,1 4.8,10.5 5.2,11.2"
             style="fill:#e4c6fa;fill-opacity:1;fill-rule:nonzero;stroke:none"
             id="path38"
             inkscape:connector-curvature="0" />
        </g>
        <g
           id="g40"
           transform="translate(331.7002,454.8999)"
           style="fill:#e4c6fa;fill-opacity:1">
          <path
             d="M 0,0 C 3,-0.8 6,-0.1 9.1,0.1 12.701,0.3 16.3,0.3 19.899,0.9 22.501,1.4 23.1,1.1 24.1,-1 26.701,-6 7.899,-7 5.5,-7.2 2.7,-7.4 0.398,-7.4 -2.2,-8.6 -9.7,-12 -14.7,-9.5 -20.3,-4 c -0.802,0.8 -1.5,1.8 -1.2,3.2 3,16.9 5.6,33.8 8.2,50.7 2.399,15.9 3.698,32.3 9.1,47.6 1.9,5.3 9.3,4.9 13.7,2 9,-5.8 3.8,-18.5 2.3,-26.9 C 8.2,52.4 4.1,32.4 1.2,12.1 0.7,8.4 0.2,4.7 -0.2,1 -0.2,0.7 0,0.4 0,0"
             style="fill:#e4c6fa;fill-opacity:1;fill-rule:nonzero;stroke:none"
             id="path42"
             inkscape:connector-curvature="0" />
        </g>
        <g
           id="g44"
           transform="translate(377.0996,342.5996)"
           style="fill:#e4c6fa;fill-opacity:1">
          <path
             d="m 0,0 c -1.1,1.2 -2.8,2.102 -4.698,2.302 -8,0.898 -16.901,-0.901 -25,-0.5 -16.7,0.8 -33.302,3.898 -49.501,8.3 -13.9,3.799 -28.4,9.2 -42.4,5.898 -11.5,-2.698 -23.299,-9.5 -30.5,-19 -6.299,-8.3 -8.799,-20.1 -8.6,-30.5 0.301,-14.8 10.9,-30.1 20.801,-33.5 3.199,-1.1 7.799,-0.8 9,2.4 0.699,1.8 -3.701,7 -6.101,13.6 -7.6,20.302 2.4,42.4 21.4,52.4 5.1,2.701 12.6,3.3 19.9,-0.599 0,0 -1.1,-13.2 -1.5,-16.5 -4.1,-33.802 -4.699,-57.802 -8.699,-91.602 -1.801,-14.7 -6.101,-30.2 -15.201,-41.8 -2.4,-3.099 -10.2,-5.5 -10.2,-8.099 0,-6.302 9.2,-7.5 12.401,-7.802 3.199,-0.398 10.799,1 13.699,2.4 12.5,6.3 17,13.201 21.7,26.3 4.8,13.2 7.4,25.901 8.4,39.901 0.4,5 1.5,19.398 1.5,19.398 2.8,0 11.201,-0.698 14.701,-0.8 19.2,-0.398 26,-2 29.898,4.7 6.2,6.8 -0.398,5.701 -11.6,6.5 -10.7,0.8 -21.4,1.201 -32.1,2.1 1.4,19.802 2.801,39.602 4.2,59.4 7.802,-2 23,-7.099 47.802,-6 4.099,0.201 12.599,1.401 17.198,4.5 C -0.199,-4.399 1.801,-2 0,0"
             style="fill:#e4c6fa;fill-opacity:1;fill-rule:nonzero;stroke:none"
             id="path46"
             inkscape:connector-curvature="0" />
        </g>
        <g
           id="g48"
           transform="translate(631.2998,313.2998)"
           style="fill:#e4c6fa;fill-opacity:1">
          <path
             d="m 0,0 c 1.102,3.3 1.7,6.602 1.3,10 -1.899,16 -15.3,8.5 -23.899,4.102 1.6,-3.302 1.1,-7.302 0.6,-11 -1.6,-11 -3.2,-22.102 -4.8,-33.102 10.1,4.8 18.7,12.9 23.901,22.8 C -1.899,-4.8 -0.8,-2.399 0,0 m -38.6,-79 c -0.299,-1.1 -0.601,-2.1 -0.9,-3.2 -0.1,-3.899 -4.7,-4.6 -8.5,-4.198 -5.5,0.599 -11.1,1.698 -13,6.898 -1.898,5.2 -0.8,10.9 0.3,16.3 2.5,11.9 4.9,23.802 7.4,35.7 2.2,10.8 4.5,21.7 6.7,32.5 0.6,3.102 1.3,6.4 3.1,9.102 C -38.8,21.5 -21.898,26 -13.7,27.5 -2.7,29.4 9.602,20.7 14.3,11.102 19.102,1.401 18,-11 11.602,-19.799 c -6,-7.4 -13.401,-13.7 -21.602,-18.5 4.9,-12.7 9.602,-25.5 14.102,-38.4 0.898,-2.6 1.799,-5.698 0.299,-8 -1.601,-2.5 -13.2,-1.5 -15.101,0.802 -8.199,14.697 -10.4,27.597 -17.5,41.297 -4,-13.799 -6.5,-22.6 -10.4,-36.4"
             style="fill:#e4c6fa;fill-opacity:1;fill-rule:nonzero;stroke:none"
             id="path50"
             inkscape:connector-curvature="0" />
        </g>
        <g
           id="g52"
           transform="translate(541.5996,256.0996)"
           style="fill:#e4c6fa;fill-opacity:1">
          <path
             d="m 0,0 c 0.2,0.602 0.4,1.2 0.602,1.802 7.799,22.599 9.099,46.099 15,69.3 1,3.599 5.7,8.2 9.2,7.2 3.398,-1 3.398,-5.802 2.698,-9.2 C 22.7,46.201 17.9,23.302 13,0.302 11.102,-8.898 8.302,-19.3 -0.1,-23.5 c -7.599,-5.198 -17.7,-6.398 -26.299,-3.3 -8.602,3.2 -15.5,10.602 -18,19.5 -2.401,8.8 -0.602,18.2 1.2,27.102 3.8,18.5 7.599,36.898 11.398,55.398 2.8,13.7 18.102,3.102 20.7,-5.398 2.1,-6.802 0.901,-14.102 -0.4,-21 -3.3,-18.5 -6.6,-37.102 -9.898,-55.602 -0.5,-2.898 -1,-6 0,-8.8 3.799,-10.2 14.299,1.3 17.099,6 2,3.1 3.2,6.3 4.3,9.6"
             style="fill:#e4c6fa;fill-opacity:1;fill-rule:nonzero;stroke:none"
             id="path54"
             inkscape:connector-curvature="0" />
        </g>
        <g
           id="g56"
           transform="translate(397,244.2002)"
           style="fill:#e4c6fa;fill-opacity:1">
          <path
             d="m 0,0 c 4.9,2 6.6,6.2 8.9,10.898 2.3,4.901 3.399,10.201 4.5,15.5 C 17.299,46 21.2,65.5 25,85.099 c 0.5,2.7 2.6,6.799 6.1,5.101 3.5,-1.7 4.301,-7.802 3.7,-10.7 C 32,65.898 29.401,52.2 27.1,38.5 24.901,26 21.8,13.3 18.3,1.1 15.6,-8.601 3.901,-14.601 -5.7,-14.101 c -9,0.5 -17.6,6.302 -21.399,14.5 C -30.4,7.6 -30.2,15.899 -29.4,23.8 c 1.9,19 6.7,37.599 11.5,56.2 1.301,4.898 3.5,10.8 8.5,11.6 3.801,0.601 5.9,-0.1 10.601,-3 C 4.501,86.6 5.1,85.3 4.6,81.399 1.8,58.6 -5.299,31.8 -6.9,9.501 c -0.3,-3.7 0.601,-7.4 3.7,-9.5 C -3,-0.101 0,-0.101 0,0"
             style="fill:#e4c6fa;fill-opacity:1;fill-rule:nonzero;stroke:none"
             id="path58"
             inkscape:connector-curvature="0" />
        </g>
        <g
           id="g60"
           transform="translate(440.5996,237.7002)"
           style="fill:#e4c6fa;fill-opacity:1">
          <path
             d="m 0,0 c -1.6,3.5 -1.698,8.1 -0.8,12.6 4.602,23.299 7.602,47.799 15.401,70.101 0.5,1.3 0.7,2.698 1.099,4.3 -0.8,0.1 -1.398,0.2 -2,0.2 -3,0.1 -6.398,-0.4 -9.5,0.198 -2.5,0.5 -8.5,3.302 -4.599,5.5 7.2,3.802 19.398,3.401 27.398,3.602 6.4,0.2 12.802,-0.102 19.102,-0.7 3.299,-0.401 7.799,0.3 10.7,-1.7 1.198,-0.8 2.898,-2.8 2.198,-4.5 -1.398,-3.399 -14.6,-2.1 -17.398,-2.201 0,0 -0.401,-2.299 -0.602,-4.398 -0.398,-4.3 -1.6,-8.602 -2.398,-12.8 -3.201,-17 -6.5,-33.9 -9.701,-50.9 C 27,9.102 24.301,-5.798 11.2,-6.198 5.2,-6.2 1.7,-3.8 0,0"
             style="fill:#e4c6fa;fill-opacity:1;fill-rule:nonzero;stroke:none"
             id="path62"
             inkscape:connector-curvature="0" />
        </g>
        <g
           id="g64"
           transform="translate(711.7002,334.7002)">
          <path
             d="M 0,0 Z"
             style="fill:#bab2df;fill-opacity:1;fill-rule:nonzero;stroke:none"
             id="path66"
             inkscape:connector-curvature="0" />
        </g>
        <g
           id="g68"
           transform="translate(677.9004,229.2002)"
           style="fill:#e4c6fa;fill-opacity:1">
          <path
             d="M 0,0 V 0.2 H 0.198 C 0.199,0.1 0.1,0 0,0 m 43.8,103.1 c -11.602,4.4 -20.5,5.5 -32.901,6 -4,0.101 -11.898,1.4 -15.398,-1.201 -3.7,-2.698 -7.2,-5 -8.302,-9.198 C -19.4,74.3 -17.7,51.399 -23,23.6 c -1.102,-5.899 -1.2,-12.1 1.5,-17.5 2.898,-5.899 6.898,-7.899 13.6,-7.8 7.9,0.099 15.7,2.3 22.599,6.2 2.602,1.5 7.802,5.398 7.102,8.3 -0.901,3.5 -1.602,4.5 -5,3.4 -3.401,-1.101 -11,-5.2 -14,-3.302 1.2,8.802 4.599,20.201 5.099,33 9.901,1.102 16.101,2.802 24.3,4.901 1.2,0.3 3.7,5.5 2.801,6.4 -0.801,0.8 -2,0.698 -3.101,0.6 -7.799,-0.8 -15.599,-1.7 -23.299,-2.5 0.799,11.2 1.599,22.5 2.4,33.7 0.198,3.398 0.898,8.2 0.898,8.2 7.102,1.3 20,0.1 24.901,0.1 7,-0.099 7.8,5.501 7,5.801"
             style="fill:#e4c6fa;fill-opacity:1;fill-rule:nonzero;stroke:none"
             id="path70"
             inkscape:connector-curvature="0" />
        </g>
        <g
           id="g72"
           transform="translate(511.0996,609.7002)">
          <path
             d="m 0,0 c -3.898,0 -3.898,-6 0,-6 3.9,0 3.9,6 0,6"
             style="fill:#ffffff;fill-opacity:1;fill-rule:nonzero;stroke:none"
             id="path74"
             inkscape:connector-curvature="0" />
        </g>
        <g
           id="g76"
           transform="translate(478.5,564)">
          <path
             d="m 0,0 c -3.9,0 -3.9,-6 0,-6 3.8,0 3.8,6 0,6"
             style="fill:#ffffff;fill-opacity:1;fill-rule:nonzero;stroke:none"
             id="path78"
             inkscape:connector-curvature="0" />
        </g>
        <g
           id="g80"
           transform="translate(551.9004,530.5)">
          <path
             d="m 0,0 c -3.9,0 -3.9,-6 0,-6 3.899,0 3.899,6 0,6"
             style="fill:#ffffff;fill-opacity:1;fill-rule:nonzero;stroke:none"
             id="path82"
             inkscape:connector-curvature="0" />
        </g>
        <g
           id="g84"
           transform="translate(661.7998,612.6001)">
          <path
             d="M 0,0 C -1.1,-0.5 -2.1,-0.9 -3.2,-1.3 -3.898,-0.5 -4.7,0.3 -5.599,1 -6.599,1.8 -8.2,1.3 -8.2,-0.1 V -3 c -1.698,-0.5 -3.3,-1 -5,-1.4 -1.899,-0.5 -1.1,-3.3 0.802,-2.9 1.5,0.4 2.898,0 4.198,-0.6 v -2.4 -0.2 c -0.3,-0.3 -0.5,-0.7 -0.8,-1 -1.2,-1.5 1.4,-3 2.602,-1.5 0.799,1 1.599,2.1 2.398,3.1 1.102,-0.4 2.3,-0.7 3.5,-0.8 0.9,0 1.8,1 1.4,1.9 -0.4,1.2 -0.9,2.3 -1.5,3.4 0.8,1.1 1.701,2.2 2.5,3.2 C 3.101,-0.7 1.101,0.5 0,0"
             style="fill:#ffffff;fill-opacity:1;fill-rule:nonzero;stroke:none"
             id="path86"
             inkscape:connector-curvature="0" />
        </g>
        <g
           id="g88"
           transform="translate(57.5,415.6001)">
          <path
             d="m 0,0 c -0.2,0.2 -0.5,0.3 -0.9,0.3 -0.9,0 -1.7,0 -2.6,-0.1 C -3.7,0.7 -3.9,1.3 -4.1,1.8 -4.6,3.6 -7.5,2.9 -7,1 -7.1,0.6 -7.2,0.2 -7.3,-0.2 c -1.1,-0.2 -2.2,-0.4 -3.3,-0.6 -1.2,-0.3 -1.5,-2.2 -0.4,-2.7 0.9,-0.4 1.8,-0.9 2.7,-1.3 -0.2,-0.7 -0.3,-1.4 -0.5,-2.1 -0.4,-1.9 2.5,-2.7 2.9,-0.8 0,0.1 0,0.2 0.1,0.3 0.3,0.3 0.6,0.7 0.9,1 0.6,-0.3 1.2,-0.6 1.8,-0.9 0.2,-0.4 0.6,-0.8 1.3,-0.8 0.5,0 0.9,0.2 1.1,0.5 0.5,0.4 0.7,1 0.3,1.7 -0.1,0.3 -0.2,0.5 -0.5,0.7 -0.3,0.5 -0.6,0.9 -0.9,1.4 0.6,0.4 1.2,0.8 1.8,1.1 1.5,0.7 1,2.3 0,2.7"
             style="fill:#ffffff;fill-opacity:1;fill-rule:nonzero;stroke:none"
             id="path90"
             inkscape:connector-curvature="0" />
        </g>
        <g
           id="g92"
           transform="translate(153.7998,336.7998)">
          <path
             d="m 0,0 c -1,-0.3 -2,-0.5 -3.1,-0.8 -0.3,0.8 -0.7,1.6 -1,2.3 -1,2.4 -4.6,1 -4.7,-1.3 v -2.8 c -1.2,-0.4 -2.4,-0.799 -3.6,-1.2 -2.2,-0.8 -2.3,-3.3 -0.6,-4.599 1.3,-1 2.7,-1.901 4.1,-2.701 v -0.299 c -0.4,-0.602 -0.8,-1.102 -1.2,-1.701 -1.9,-2.601 2.5,-5.101 4.3,-2.5 0.2,0.3 0.5,0.6 0.7,0.899 0.5,0.302 0.8,0.7 1,1.2 0.8,-0.3 1.5,-0.6 2.3,-0.898 2.3,-0.802 3.6,1.898 2.8,3.698 -0.4,1 -0.8,1.9 -1.2,2.9 1,1.401 1.9,2.7 2.9,4.1 C 4.2,-1.899 2,0.5 0,0"
             style="fill:#ffffff;fill-opacity:1;fill-rule:nonzero;stroke:none"
             id="path94"
             inkscape:connector-curvature="0" />
        </g>
        <g
           id="g96"
           transform="translate(664,433.1001)">
          <path
             d="m 0,0 c -1.5,-0.3 -2.9,-0.6 -4.4,-0.9 -0.899,1.7 -1.8,3.3 -2.399,4.8 -0.9,2.1 -4,1.3 -4.601,-0.6 -0.6,-2 -1.1,-4 -1.6,-6 -2.1,-0.4 -4.1,-0.8 -6.2,-1.3 -2.5,-0.5 -2.2,-4.1 0,-4.8 1.5,-0.5 3,-1 4.5,-1.6 -0.2,-1 -0.399,-2 -0.5,-3 -0.1,-0.4 0,-0.7 0,-1 -0.1,-0.9 -0.2,-1.7 -0.2,-2.6 0,-0.5 0.2,-0.9 0.4,-1.3 0.4,-2.1 3.4,-3.3 4.5,-1 0.9,1.8 1.8,3.6 3,5.2 1.1,-0.6 2.1,-1.3 3.1,-2 1.301,-0.9 3.301,0 3.7,1.5 0.5,2.2 0.101,4.5 -0.6,6.9 1.5,1.2 3,2.4 4.2,4.1 C 4.1,-1.7 1.9,0.5 0,0"
             style="fill:#ffffff;fill-opacity:1;fill-rule:nonzero;stroke:none"
             id="path98"
             inkscape:connector-curvature="0" />
        </g>
        <g
           id="g100"
           transform="translate(121.3999,181.7998)">
          <path
             d="m 0,0 c -1.3,-0.398 -2.6,-0.7 -4,-1.1 -0.8,1.8 -1.6,3.6 -2.5,5.5 -0.9,2 -4.1,1.399 -4.6,-0.601 -0.5,-2.1 -0.9,-4.198 -1.2,-6.198 -1.5,-0.102 -2.9,-0.302 -4.4,-0.302 -2.3,-0.1 -3.6,-3.5 -1.3,-4.698 1.6,-0.802 3.2,-1.5 4.9,-2.302 -0.1,-1.6 -0.2,-3.198 -0.2,-4.8 -1.4,-2.3 1.9,-5.3 3.9,-3.1 1.3,1.399 2.5,2.8 3.8,4.201 0.9,-0.401 1.8,-0.802 2.6,-1.302 2.3,-1.1 4.5,1.101 3.4,3.4 -0.5,1 -0.9,2.1 -1.4,3.1 1.1,1.302 2.2,2.5 3.3,3.802 C 3.9,-2.399 2.5,0.7 0,0"
             style="fill:#ffffff;fill-opacity:1;fill-rule:nonzero;stroke:none"
             id="path102"
             inkscape:connector-curvature="0" />
        </g>
        <g
           id="g104"
           transform="translate(401.7002,663.8999)">
          <path
             d="m 0,0 c -1.5,0.1 -3,0.3 -4.4,0.4 -0.701,2 -1.5,4.1 -2.399,6 -0.601,1.3 -3,1 -3.2,-0.4 -0.2,-1.7 -0.5,-3.3 -0.9,-5 -1.701,0.2 -3.399,0.3 -5.1,0.5 -1.8,0.2 -2.2,-2.4 -0.9,-3.2 1.5,-0.9 3,-1.9 4.5,-2.9 -0.5,-1.6 -1,-3.2 -1.6,-4.7 -0.5,-1.2 0.398,-2 1.398,-2.1 0.5,-0.2 1.102,-0.1 1.701,0.4 1.2,1 2.299,1.9 3.601,2.8 0.198,-0.2 0.5,-0.3 0.698,-0.5 0.802,-1 1.701,-1.8 2.802,-2.5 0.8,-0.5 2.198,0.1 2.1,1.2 -0.1,1.4 -0.5,2.8 -1,4 0,0.2 -0.1,0.5 -0.1,0.7 1.198,0.7 2.5,1.4 3.8,2 C 2.5,-2.4 1.5,-0.2 0,0"
             style="fill:#ffffff;fill-opacity:1;fill-rule:nonzero;stroke:none"
             id="path106"
             inkscape:connector-curvature="0" />
        </g>
        <g
           id="g108"
           transform="translate(124.6001,411.3999)">
          <path
             d="m 0,0 c -3.2,0 -3.2,-5 0,-5 3.2,0 3.2,5 0,5"
             style="fill:#ffffff;fill-opacity:1;fill-rule:nonzero;stroke:none"
             id="path110"
             inkscape:connector-curvature="0" />
        </g>
        <g
           id="g112"
           transform="translate(68.7998,360.0996)">
          <path
             d="m 0,0 c -3.2,0 -3.2,-5 0,-5 3.2,0 3.2,5 0,5"
             style="fill:#ffffff;fill-opacity:1;fill-rule:nonzero;stroke:none"
             id="path114"
             inkscape:connector-curvature="0" />
        </g>
        <g
           id="g116"
           transform="translate(20.3999,304.7002)">
          <path
             d="m 0,0 c -4.5,0 -4.5,-7 0,-7 4.5,0 4.5,7 0,7"
             style="fill:#ffffff;fill-opacity:1;fill-rule:nonzero;stroke:none"
             id="path118"
             inkscape:connector-curvature="0" />
        </g>
        <g
           id="g120"
           transform="translate(114.8999,272)">
          <path
             d="m 0,0 c -4.5,0 -4.5,-7 0,-7 4.5,0 4.5,7 0,7"
             style="fill:#ffffff;fill-opacity:1;fill-rule:nonzero;stroke:none"
             id="path122"
             inkscape:connector-curvature="0" />
        </g>
        <g
           id="g124"
           transform="translate(55.6001,551)">
          <path
             d="m 0,0 c -4.5,0 -4.5,-7 0,-7 4.5,0 4.5,7 0,7"
             style="fill:#ffffff;fill-opacity:1;fill-rule:nonzero;stroke:none"
             id="path126"
             inkscape:connector-curvature="0" />
        </g>
        <g
           id="g128"
           transform="translate(552.9004,575.7002)">
          <path
             d="m 0,0 c -4.5,0 -4.5,-7 0,-7 4.5,0 4.5,7 0,7"
             style="fill:#ffffff;fill-opacity:1;fill-rule:nonzero;stroke:none"
             id="path130"
             inkscape:connector-curvature="0" />
        </g>
        <g
           id="g132"
           transform="translate(313.9004,660.8999)">
          <path
             d="M 0,0 C 2.5,-3 7.1,0.9 4.6,3.8 2.1,6.8 -2.5,3 0,0"
             style="fill:#ffffff;fill-opacity:1;fill-rule:nonzero;stroke:none"
             id="path134"
             inkscape:connector-curvature="0" />
        </g>
        <g
           id="g136"
           transform="translate(348.5,743)">
          <path
             d="M 0,0 C 2.5,-3 7.1,0.9 4.6,3.8 2.1,6.8 -2.5,3 0,0"
             style="fill:#ffffff;fill-opacity:1;fill-rule:nonzero;stroke:none"
             id="path138"
             inkscape:connector-curvature="0" />
        </g>
        <g
           id="g140"
           transform="translate(313.2998,714.7002)">
          <path
             d="M 0,0 C 2.9,-3.5 8.3,1 5.4,4.5 2.4,8 -2.899,3.5 0,0"
             style="fill:#ffffff;fill-opacity:1;fill-rule:nonzero;stroke:none"
             id="path142"
             inkscape:connector-curvature="0" />
        </g>
        <g
           id="g144"
           transform="translate(614.5996,667.2002)">
          <path
             d="m 0,0 c -4.5,0 -4.5,-7 0,-7 4.5,0 4.5,7 0,7"
             style="fill:#ffffff;fill-opacity:1;fill-rule:nonzero;stroke:none"
             id="path146"
             inkscape:connector-curvature="0" />
        </g>
        <g
           id="g148"
           transform="translate(727.0996,548.1001)">
          <path
             d="m 0,0 c -4.5,0 -4.5,-7 0,-7 4.5,0 4.5,7 0,7"
             style="fill:#ffffff;fill-opacity:1;fill-rule:nonzero;stroke:none"
             id="path150"
             inkscape:connector-curvature="0" />
        </g>
        <g
           id="g152"
           transform="translate(645.7002,153.7998)">
          <path
             d="M 0,0 0.5,0.5 C 0.6,0.7 0.8,0.9 0.7,1.102 0.5,1.901 -0.7,0.602 -0.901,0.401 -1.701,-0.2 -2.501,-0.799 -3.3,-1.398 -4.901,-2.5 -9.5,-4.099 -11.602,-5 c 2.602,0 8,2.7 10.302,3.9 0.4,0.4 0.9,0.701 1.3,1.1"
             style="fill:#ffffff;fill-opacity:1;fill-rule:nonzero;stroke:none"
             id="path154"
             inkscape:connector-curvature="0" />
        </g>
        <g
           id="g156"
           transform="translate(645.2002,139.2002)">
          <path
             d="M 0,0 -0.2,-0.2 C -0.601,-0.5 -1.101,-1.3 -1.601,-1.4 -0.4,-1 1.001,-0.2 1.6,1 1,0.8 0.399,0.399 0,0"
             style="fill:#ffffff;fill-opacity:1;fill-rule:nonzero;stroke:none"
             id="path158"
             inkscape:connector-curvature="0" />
        </g>
        <g
           id="g160"
           transform="translate(629,133.2998)">
          <path
             d="M 0,0 C 0.4,-0.5 1.3,-0.5 1.9,0 2.099,0.2 3.599,0.602 3.7,0.7 2.9,0.8 0.7,0.2 0,0"
             style="fill:#ffffff;fill-opacity:1;fill-rule:nonzero;stroke:none"
             id="path162"
             inkscape:connector-curvature="0" />
        </g>
        <g
           id="g164"
           transform="translate(634.2002,136.5996)">
          <path
             d="m 0,0 c -0.3,-0.198 -1.3,-0.8 -1.5,-1 1,0 3.2,0.7 3.8,1.7 C 1.5,0.9 0.5,0.4 0,0"
             style="fill:#ffffff;fill-opacity:1;fill-rule:nonzero;stroke:none"
             id="path166"
             inkscape:connector-curvature="0" />
        </g>
        <g
           id="g168"
           transform="translate(653,140)">
          <path
             d="m 0,0 c 0,-0.2 -1.9,-1.2 -1.7,-0.2 0,0.2 0.101,0.3 0.2,0.5 0.2,0.3 0.4,0.601 0.6,1 0.101,0.4 0.2,0.8 -0.1,1.101 -0.9,1.3 -2.7,-0.301 -2.8,-1.4 0.1,0.6 0.899,0.9 1.399,0.6 1,-0.6 -0.3,-1.899 0.101,-2.899 0.1,-0.101 0.2,-0.2 0.3,-0.101 0.6,0.101 1.3,0.301 1.8,0.601 -0.1,-0.7 -0.3,-1.3 -0.5,-1.9 -0.1,-0.2 -1.6,-0.5 -1.8,-0.5 -0.6,0 -1,0.3 -1.4,-0.5 -0.199,-0.3 -0.3,-0.7 -0.5,-1 0.5,-0.3 1.2,-0.3 1.7,-0.1 -0.7,-0.601 -1.5,-1.101 -2.3,-1.5 -0.3,-0.2 -0.6,-0.3 -0.9,-0.601 -0.199,-0.199 -0.699,-1 -0.899,-1 2,0.301 3.8,1.9 5.3,3.301 -0.8,-1.601 -1.9,-3.101 -3.3,-4.2 -2.8,-2.4 -6.3,-3.8 -9.8,-4.5 0.5,0.2 0.8,0.5 1.1,0.7 -0.6,-0.301 -1.1,-0.5 -1.8,-0.601 -0.101,-0.1 -0.101,-0.2 -0.2,-0.2 -2.2,-0.3 -4.4,-0.399 -6.7,-0.1 -0.1,0 -0.1,0.2 0,0.2 2.4,0.1 4.7,0.8 6.8,2 0.301,0.2 0.601,0.1 0.7,-0.101 0.101,-0.1 2,0.9 1.8,1.4 -0.1,0.1 -0.199,0.2 -0.3,0.3 -0.7,0.3 -1.3,-0.2 -1.899,-0.5 -0.801,-0.399 -1.7,-0.7 -2.5,-1 -1.301,-0.399 -2.301,-1.1 -3.7,-1.3 -2.601,-0.4 -5.4,0 -7.7,1.3 3.4,0.5 6.7,1.2 10,2 -0.7,-0.2 -2,0.2 -2.8,0.2 -1.2,0.1 -2.3,0.2 -3.5,0.3 h -4 c -1,0 -2,0.101 -3,0.101 -0.3,0.399 -0.7,0.699 -1,1.1 1.399,0.6 2.8,1.1 4.2,1.7 2.399,1 4.8,2.1 7.3,3.2 -0.4,-0.4 0,-0.4 -0.3,-0.801 -0.301,-0.399 -4,-2.399 -7.301,-3.699 0.7,-1.2 3.9,0.399 4.2,0.6 0.2,0.2 3.5,2.5 3.7,2.7 0.5,0.7 0.1,0.7 0.6,1.3 0.2,0.2 0.5,0.4 0.7,0.6 5.101,2.4 10.101,4.9 15,7.801 1.601,0.899 3.101,1.899 4.7,2.899 0.1,-0.3 0.1,-0.6 0.2,-0.899 -0.2,-0.2 -6,-4.5 -9,-6.4 -1.2,-0.7 -4.601,-1.3 -3.5,-2.3 1.8,0.6 3.1,1.2 4.6,2.3 1.7,1.1 3.7,2.5 5.2,3.8 0.5,0.4 1,0.7 1.2,0.3 1,0.8 1.6,1.3 1.7,1.4 C 0.4,4.7 0.4,2.3 0,0 m -31.4,-9.3 c 0,0 4.5,-0.101 6.801,0 -1.9,-0.3 -3.9,-0.601 -5.7,-0.9 -0.401,0.3 -0.701,0.6 -1.101,0.9 m -3,3.9 c -0.4,0.8 -0.7,1.6 -0.9,2.4 0,0.1 0,0.1 -0.101,0.2 3.2,0.1 6.4,0.7 9.4,1.899 1.5,0.601 3.4,1.801 5,1.9 0.4,0.2 0.6,0.1 0.8,-0.1 -0.899,-0.4 -1.8,-0.801 -2.6,-1.2 C -26.6,-2.2 -30.5,-3.8 -34.4,-5.4 M -7.7,7.3 c -2.5,-1.399 -5.1,-2.8 -7.7,-4.1 0.2,0.8 1.2,1.399 1.801,1.899 0.8,0.7 1.6,1.4 2.6,1.9 C -9.9,7.6 -8.9,7.7 -7.7,7.3 M -35.9,1.5 c 0.601,-0.1 1.2,-0.2 1.9,-0.2 -0.6,0.101 -1,-0.6 -0.9,-1.2 0.101,-0.6 0.801,-0.899 1.4,-0.899 0.599,0 1.2,0.2 1.7,0.399 3,1.101 6.2,2.301 8.5,4.601 -3.2,-1.2 -6.3,-2.3 -9.5,-3.5 0,0.7 0.6,1.3 1.2,1.7 0.699,0.3 1.399,0.399 2.1,0.5 3.6,0.6 7,2.1 10,4.3 -4,-1.601 -8.1,-3.2 -12.3,-4.3 1.1,0.8 1.8,2.1 1.8,3.5 -1.8,-0.9 -3.8,-1.4 -5.7,-1.5 0,1.3 0.101,2.6 0.9,3.6 0.5,0.6 1.2,0.9 1.899,1.2 3.101,1.399 6.301,2.8 9.4,4.2 -1.4,0.1 -2.9,-0.301 -4.1,-1 1.6,1.3 3.5,2.199 5.5,2.6 -0.301,-0.5 -0.5,-1 -0.801,-1.5 0.7,0.1 1.301,0.3 1.801,0.8 0.5,0.5 0.6,1.3 0.1,1.8 -0.4,0.301 -0.9,0.301 -1.4,0.2 -2,-0.399 -3.699,-1.7 -5.399,-2.8 -1.7,-1.1 -3.8,-2 -5.8,-1.5 0.899,2 2.5,5.1 4.8,5.1 2.7,0.101 5.399,1.301 7.2,3.2 0.199,0.3 0.5,0.5 0.8,0.601 0.3,0.1 0.8,0 0.899,-0.4 0.101,-0.5 -0.6,-0.9 -0.8,-1.4 -0.2,-0.5 0.2,-1 0.7,-1.1 0.5,-0.2 1,0 1.4,0.1 1.199,0.3 2.3,0.9 3.3,1.5 1,0.7 2,1.5 3.2,1.7 1.699,0.3 3.3,-0.9 4.699,-2.1 -0.699,-1.3 -2.199,-1.8 -3.6,-1.9 -1.4,-0.2 -2.9,0 -4.2,-0.5 -1.3,-0.5 -2.2,-1.4 -3.2,-2.3 -1.199,-1 -2.5,-1.9 -3.8,-2.6 2.8,0.699 5.5,2.899 8.2,4.3 0.4,0.2 0.9,0.5 1.4,0.399 0.5,-0.1 1,-0.399 1,-0.899 0.2,0.1 0.3,0.1 0.5,0.2 -0.7,-0.7 -1.3,-1.4 -2,-2.101 1.8,1.2 3.7,2.3 5.5,3.5 0.399,0.3 0.899,0.5 1.399,0.601 0.9,0.1 1.601,-0.7 2.101,-1.5 0.399,-0.801 0.8,-1.601 1.399,-2.2 -6.3,-3.601 -12.5,-7.2 -18.8,-10.8 4.7,1.6 9.2,4 13.5,6.5 -0.3,-0.4 0.101,-1 0.601,-1.101 0.5,-0.1 1,0.2 1.399,0.4 1.5,0.899 2.9,2 4.101,3.2 0.6,-0.4 0.399,-1.4 -0.101,-2 -1.3,-1.7 -3.5,-2.2 -5.6,-2.601 -2.101,-0.3 -4.3,-0.6 -5.9,-2 -1.2,-1 -1.899,-2.6 -3.2,-3.6 -1,-0.8 -3.1,-0.7 -4.3,-1 -5.1,-1.2 -9.3,-2.8 -14.399,-4 -0.198,1.2 -0.398,2.5 -0.498,3.8 m 0,2.7 c 1.7,-0.101 3.301,0.1 4.801,0.6 -0.601,-0.7 -1.101,-1.399 -1.7,-2.1 -0.101,0 -0.2,0.1 -0.3,0.1 h -3 C -36,3.3 -35.9,3.7 -35.9,4.2 m 1.8,7.1 0.1,-0.1 c 1.6,-0.4 2.9,-0.2 4.1,0.399 -1.5,-0.899 -3.1,-1.8 -4.899,-2 C -34.5,10.2 -34.3,10.7 -34.1,11.3 m 21.4,11.1 c -1.6,-1.101 -3.3,-2.101 -5.2,-3 -0.699,-0.601 -1.3,-0.4 -1.6,0.6 0.1,0.1 0.2,0.1 0.3,0.2 0.101,0.2 0.4,0.3 0.5,0.5 0.2,0.3 0.3,0.7 0,1.1 -0.8,0.9 -2.5,-0.3 -3.2,-0.7 -2.199,-1.5 -4.399,-3.3 -7.3,-2.899 h -0.1 c 4.6,3.899 10.9,5.599 16.6,4.199 m 9.8,-8.6 c 0,-0.1 -0.1,-0.2 -0.3,-0.6 -0.2,-0.4 -3.2,-2.5 -3.2,-2.5 -0.1,0.3 0,0.6 0.2,0.899 0.2,0.2 0.4,0.4 0.7,0.601 0.6,0.399 1.2,1 1.9,1.3 0.4,0.3 0.7,0.4 0.7,0.3 m 15.7,7 c 0,0.2 -0.1,0.4 -0.2,0.601 -0.3,0.6 -0.8,1.1 -1.399,1.399 -0.9,0.4 -2,0.4 -3,0.3 -1.2,-0.1 -2.5,-0.399 -3.601,-1 -0.8,-0.399 -1.6,-1 -2.199,-1.8 0.3,-0.7 0.899,-0.1 1.5,0.101 1,0.399 4.1,1.199 5.3,0.699 0.5,-0.199 0.899,-0.5 0.5,-1.3 -1.101,-2.2 -5.3,-4.5 -7.2,-5.8 -2.8,7.1 -8.2,11.7 -16.2,12.6 -9.6,1 -20,-5 -23.7,-13.699 -2.8,-6.5 -3.199,-13.7 -0.199,-19.601 -0.9,-0.399 -1.801,-0.7 -2.601,-1.1 -2,-0.8 -4.8,-1.8 -7.1,-2.4 -1.101,-0.1 -2.3,-0.2 -2.4,0.9 -0.2,2 1.9,3.7 3.2,4.899 1.6,1.5 3,2.601 4.8,3.801 0.2,0.1 -0.1,0.199 -0.2,0.3 -0.199,0.1 -0.399,0.1 -0.6,0 -1.3,-0.3 -2.5,-1.2 -3.6,-1.9 -2.7,-1.7 -5.7,-4 -7,-7 -0.301,-0.7 -0.4,-1.399 -0.2,-2.1 0.3,-1.3 1.6,-2.101 2.8,-2.3 2.9,-0.601 5.9,0.699 8.5,1.899 2.4,1.101 4.9,2.4 5.8,2.8 0.9,-1.3 2,-2.5 3.3,-3.6 7.601,-6.3 18.601,-6 26.301,-2 9,4.6 12.3,13.4 10.5,23 -0.2,0.8 -0.301,1.7 -0.601,2.5 1.101,0.8 7.4,5.2 8.8,7.4 C 12.6,19.1 13,19.9 12.8,20.8"
             style="fill:#ffffff;fill-opacity:1;fill-rule:nonzero;stroke:none"
             id="path170"
             inkscape:connector-curvature="0" />
        </g>
        <g
           id="g172"
           transform="translate(632.7002,132)">
          <path
             d="M 0,0 C 2,-0.4 3.6,-0.4 5,-0.1 5.6,0 8,1.299 8.8,2 7,1.6 6.3,1.7 4.2,0.9 6.599,2.4 11.099,4.2 12.398,5.9 11.898,5.599 9.398,4.099 8.5,4.4 7.898,4.599 7.398,3.4 6.8,3.099 5.7,2.499 4.7,2.4 3.6,1.799 2.899,1.2 1,0.2 0,0"
             style="fill:#ffffff;fill-opacity:1;fill-rule:nonzero;stroke:none"
             id="path174"
             inkscape:connector-curvature="0" />
        </g>
        <g
           id="g176"
           transform="translate(644.7002,132.5996)">
          <path
             d="m 0,0 c 0.6,0.7 1.1,1.602 1.7,2.302 -0.4,-0.2 -1.9,-1.2 -2.101,-1.7 -0.1,-0.3 -0.1,-0.701 0.101,-0.901 0.1,0.1 0.199,0.199 0.3,0.299"
             style="fill:#ffffff;fill-opacity:1;fill-rule:nonzero;stroke:none"
             id="path178"
             inkscape:connector-curvature="0" />
        </g>
        <g
           id="g180"
           transform="translate(648.0996,138.5)">
          <path
             d="M 0,0 C 0.302,0.2 0.602,0.5 1,0.7 1.302,0.9 1.7,0.8 1.9,0.599 1.9,0.7 2,0.9 2,0.999 2,1.399 1.602,1.699 1.2,1.599 0.302,1.4 -0.698,0.299 -1,-0.501 -0.699,-0.3 -0.3,-0.1 0,0"
             style="fill:#ffffff;fill-opacity:1;fill-rule:nonzero;stroke:none"
             id="path182"
             inkscape:connector-curvature="0" />
        </g>
        <g
           id="g184"
           transform="translate(625.7002,149.7002)">
          <path
             d="M 0,0 C 0.6,-0.4 5.1,1.1 5.7,1.398 5.099,1.099 1.898,0.599 1.3,0.898 1.1,0.8 0.1,0.3 0,0"
             style="fill:#ffffff;fill-opacity:1;fill-rule:nonzero;stroke:none"
             id="path186"
             inkscape:connector-curvature="0" />
        </g>
        <g
           id="g188"
           transform="translate(417.9004,163.7002)">
          <path
             d="m 0,0 c -3.9,0 -3.9,-6 0,-6 3.899,0 3.899,6 0,6"
             style="fill:#ffffff;fill-opacity:1;fill-rule:nonzero;stroke:none"
             id="path190"
             inkscape:connector-curvature="0" />
        </g>
        <g
           id="g192"
           transform="translate(545.5,189.4004)">
          <path
             d="m 0,0 c -3.9,0 -3.9,-6 0,-6 3.8,0 3.8,6 0,6"
             style="fill:#ffffff;fill-opacity:1;fill-rule:nonzero;stroke:none"
             id="path194"
             inkscape:connector-curvature="0" />
        </g>
        <g
           id="g196"
           transform="translate(726.7002,467.1001)">
          <path
             d="m 0,0 c -3.9,0 -3.9,-6 0,-6 3.8,0 3.8,6 0,6"
             style="fill:#ffffff;fill-opacity:1;fill-rule:nonzero;stroke:none"
             id="path198"
             inkscape:connector-curvature="0" />
        </g>
        <g
           id="g200"
           transform="translate(521.5996,135.7998)">
          <path
             d="m 0,0 c -3.198,0 -3.198,-5 0,-5 3.2,0 3.2,5 0,5"
             style="fill:#ffffff;fill-opacity:1;fill-rule:nonzero;stroke:none"
             id="path202"
             inkscape:connector-curvature="0" />
        </g>
        <g
           id="g204"
           transform="translate(510.0996,467.6001)">
          <path
             d="m 0,0 c -3.198,0 -3.198,-5 0,-5 3.2,0 3.2,5 0,5"
             style="fill:#ffffff;fill-opacity:1;fill-rule:nonzero;stroke:none"
             id="path206"
             inkscape:connector-curvature="0" />
        </g>
        <g
           id="g208"
           transform="translate(192.7998,213.5996)">
          <path
             d="m 0,0 c -3.2,0 -3.2,-5 0,-5 3.2,0 3.2,5 0,5"
             style="fill:#ffffff;fill-opacity:1;fill-rule:nonzero;stroke:none"
             id="path210"
             inkscape:connector-curvature="0" />
        </g>
        <g
           id="g212"
           transform="translate(87.7002,232.9004)">
          <path
             d="m 0,0 c -3.2,0 -3.2,-5 0,-5 3.2,0 3.2,5 0,5"
             style="fill:#ffffff;fill-opacity:1;fill-rule:nonzero;stroke:none"
             id="path214"
             inkscape:connector-curvature="0" />
        </g>
        <g
           id="g216"
           transform="translate(172.2998,149.7002)">
          <path
             d="m 0,0 c -3.2,0 -3.2,-5 0,-5 3.3,0 3.3,5 0,5"
             style="fill:#ffffff;fill-opacity:1;fill-rule:nonzero;stroke:none"
             id="path218"
             inkscape:connector-curvature="0" />
        </g>
        <g
           id="g220"
           transform="translate(484.9004,171.7002)">
          <path
             d="M 0,0 C -1.102,-0.2 -2.2,-0.4 -3.302,-0.602 -3.7,0.5 -4.2,1.599 -5,2.398 c -0.4,0.5 -1.2,0.5 -1.7,0.201 -1.3,-0.701 -1.2,-2.3 -1.3,-3.701 -1.302,-0.099 -2.602,-0.099 -3.802,0 -1.3,0.102 -2,-2 -0.698,-2.599 1.198,-0.6 2.398,-1.2 3.6,-1.901 -0.401,-1.299 -0.8,-2.599 -1.201,-3.898 -0.398,-1.4 1.201,-2.102 2.102,-1.5 0.198,0.1 0.398,0.2 0.5,0.5 0.398,0.5 0.698,1 1.1,1.6 0.299,0.4 0.7,0.7 1.099,1.101 1.102,-0.802 2.2,-1.601 3.2,-2.5 1.201,-1.101 2.8,0.198 2.201,1.698 -0.5,1.201 -1.1,2.5 -1.6,3.701 1.1,0.799 2.198,1.799 3.1,2.9 C 2.399,-1 1.1,0.3 0,0"
             style="fill:#ffffff;fill-opacity:1;fill-rule:nonzero;stroke:none"
             id="path222"
             inkscape:connector-curvature="0" />
        </g>
        <g
           id="g224"
           transform="translate(219.7002,719.7002)">
          <path
             d="m 0,0 c -2.6,0 -2.6,-4 0,-4 2.5,0 2.5,4 0,4"
             style="fill:#ffffff;fill-opacity:1;fill-rule:nonzero;stroke:none"
             id="path226"
             inkscape:connector-curvature="0" />
        </g>
        <g
           id="g228"
           transform="translate(455,775.5)">
          <path
             d="m 0,0 c -2.6,0 -2.6,-4 0,-4 2.5,0 2.6,4 0,4"
             style="fill:#ffffff;fill-opacity:1;fill-rule:nonzero;stroke:none"
             id="path230"
             inkscape:connector-curvature="0" />
        </g>
        <g
           id="g232"
           transform="translate(611.5,98.0996)">
          <path
             d="m 0,0 c -2.6,0 -2.6,-4 0,-4 2.6,0 2.6,4 0,4"
             style="fill:#ffffff;fill-opacity:1;fill-rule:nonzero;stroke:none"
             id="path234"
             inkscape:connector-curvature="0" />
        </g>
        <g
           id="g236"
           transform="translate(272.2002,97)">
          <path
             d="m 0,0 c -2.6,0 -2.6,-4 0,-4 2.6,0 2.6,4 0,4"
             style="fill:#ffffff;fill-opacity:1;fill-rule:nonzero;stroke:none"
             id="path238"
             inkscape:connector-curvature="0" />
        </g>
        <g
           id="g240"
           transform="translate(375.0996,23.7002)">
          <path
             d="m 0,0 c -2.6,0 -2.6,-4 0,-4 2.601,0 2.601,4 0,4"
             style="fill:#ffffff;fill-opacity:1;fill-rule:nonzero;stroke:none"
             id="path242"
             inkscape:connector-curvature="0" />
        </g>
        <g
           id="g244"
           transform="translate(770.2002,375)">
          <path
             d="m 0,0 c -2.602,0 -2.602,-4 0,-4 2.5,0 2.6,4 0,4"
             style="fill:#ffffff;fill-opacity:1;fill-rule:nonzero;stroke:none"
             id="path246"
             inkscape:connector-curvature="0" />
        </g>
        <g
           id="g248"
           transform="translate(754.9004,289.5996)">
          <path
             d="m 0,0 c -2.602,0 -2.602,-4 0,-4 2.5,0 2.5,4 0,4"
             style="fill:#ffffff;fill-opacity:1;fill-rule:nonzero;stroke:none"
             id="path250"
             inkscape:connector-curvature="0" />
        </g>
        <g
           id="g252"
           transform="translate(462.5996,59.2998)">
          <path
             d="m 0,0 c -2.6,0 -2.6,-4 0,-4 2.601,0 2.601,4 0,4"
             style="fill:#ffffff;fill-opacity:1;fill-rule:nonzero;stroke:none"
             id="path254"
             inkscape:connector-curvature="0" />
        </g>
        <g
           id="g256"
           transform="translate(479.7002,47.9004)">
          <path
             d="m 0,0 c -2.602,0 -2.602,-4 0,-4 2.6,0 2.6,4 0,4"
             style="fill:#ffffff;fill-opacity:1;fill-rule:nonzero;stroke:none"
             id="path258"
             inkscape:connector-curvature="0" />
        </g>
        <g
           id="g260"
           transform="translate(495.7002,742.1001)">
          <path
             d="m 0,0 c -2.602,0 -2.602,-4 0,-4 2.6,0 2.6,4 0,4"
             style="fill:#ffffff;fill-opacity:1;fill-rule:nonzero;stroke:none"
             id="path262"
             inkscape:connector-curvature="0" />
        </g>
        <g
           id="g264"
           transform="translate(144.2002,682.5)">
          <path
             d="m 0,0 c -2.6,0 -2.6,-4 0,-4 2.6,0 2.6,4 0,4"
             style="fill:#ffffff;fill-opacity:1;fill-rule:nonzero;stroke:none"
             id="path266"
             inkscape:connector-curvature="0" />
        </g>
        <g
           id="g268"
           transform="translate(19.8999,508.7002)">
          <path
             d="m 0,0 c -2.6,0 -2.6,-4 0,-4 2.6,0 2.6,4 0,4"
             style="fill:#ffffff;fill-opacity:1;fill-rule:nonzero;stroke:none"
             id="path270"
             inkscape:connector-curvature="0" />
        </g>
        <g
           id="g272"
           transform="translate(169.7002,721.3999)">
          <path
             d="m 0,0 c -2.6,0 -2.6,-4 0,-4 2.5,0 2.5,4 0,4"
             style="fill:#ffffff;fill-opacity:1;fill-rule:nonzero;stroke:none"
             id="path274"
             inkscape:connector-curvature="0" />
        </g>
        <g
           id="g276"
           transform="translate(780.7002,332)">
          <path
             d="m 0,0 c -2.602,0 -2.602,-4 0,-4 2.6,0 2.6,4 0,4"
             style="fill:#ffffff;fill-opacity:1;fill-rule:nonzero;stroke:none"
             id="path278"
             inkscape:connector-curvature="0" />
        </g>
        <g
           id="g280"
           transform="translate(707.2998,176.2998)">
          <path
             d="m 0,0 c -2.6,0 -2.6,-4 0,-4 2.601,0 2.601,4 0,4"
             style="fill:#ffffff;fill-opacity:1;fill-rule:nonzero;stroke:none"
             id="path282"
             inkscape:connector-curvature="0" />
        </g>
        <g
           id="g284"
           transform="translate(189.1001,683.5)">
          <path
             d="m 0,0 c -3.9,0 -3.9,-6 0,-6 3.9,0 3.9,6 0,6"
             style="fill:#ffffff;fill-opacity:1;fill-rule:nonzero;stroke:none"
             id="path286"
             inkscape:connector-curvature="0" />
        </g>
        <g
           id="g288"
           transform="translate(16.8999,404.9004)">
          <path
             d="m 0,0 c -3.9,0 -3.9,-6 0,-6 3.9,0 3.9,6 0,6"
             style="fill:#ffffff;fill-opacity:1;fill-rule:nonzero;stroke:none"
             id="path290"
             inkscape:connector-curvature="0" />
        </g>
        <g
           id="g292"
           transform="translate(722.2998,394.4004)">
          <path
             d="m 0,0 c -3.898,0 -3.898,-6 0,-6 3.9,0 3.9,6 0,6"
             style="fill:#ffffff;fill-opacity:1;fill-rule:nonzero;stroke:none"
             id="path294"
             inkscape:connector-curvature="0" />
        </g>
        <g
           id="g296"
           transform="translate(568,70.9004)">
          <path
             d="m 0,0 c -3.9,0 -3.9,-6 0,-6 3.9,0 3.9,6 0,6"
             style="fill:#ffffff;fill-opacity:1;fill-rule:nonzero;stroke:none"
             id="path298"
             inkscape:connector-curvature="0" />
        </g>
        <g
           id="g300"
           transform="translate(668.4004,530.7002)">
          <path
             d="m 0,0 c -3.9,0 -3.9,-6 0,-6 3.8,0 3.8,6 0,6"
             style="fill:#ffffff;fill-opacity:1;fill-rule:nonzero;stroke:none"
             id="path302"
             inkscape:connector-curvature="0" />
        </g>
      </g>
    </g>
  </g>
</svg>
