<?xml version="1.0" encoding="UTF-8" standalone="no"?>
<!-- Created with Inkscape (http://www.inkscape.org/) -->

<svg
   xmlns:dc="http://purl.org/dc/elements/1.1/"
   xmlns:cc="http://creativecommons.org/ns#"
   xmlns:rdf="http://www.w3.org/1999/02/22-rdf-syntax-ns#"
   xmlns:svg="http://www.w3.org/2000/svg"
   xmlns="http://www.w3.org/2000/svg"
   xmlns:xlink="http://www.w3.org/1999/xlink"
   xmlns:sodipodi="http://sodipodi.sourceforge.net/DTD/sodipodi-0.dtd"
   xmlns:inkscape="http://www.inkscape.org/namespaces/inkscape"
   version="1.1"
   width="64"
   height="64"
   id="svg4706"
   inkscape:version="0.48.3.1 r9886"
   sodipodi:docname="Burn.svg">
  <sodipodi:namedview
     pagecolor="#ffffff"
     bordercolor="#666666"
     borderopacity="1"
     objecttolerance="10"
     gridtolerance="10"
     guidetolerance="10"
     inkscape:pageopacity="0"
     inkscape:pageshadow="2"
     inkscape:window-width="786"
     inkscape:window-height="430"
     id="namedview69"
     showgrid="false"
     inkscape:zoom="1"
     inkscape:cx="32.541311"
     inkscape:cy="47.136691"
     inkscape:window-x="415"
     inkscape:window-y="133"
     inkscape:window-maximized="0"
     inkscape:current-layer="svg4706">
    <inkscape:grid
       type="xygrid"
       id="grid5003" />
  </sodipodi:namedview>
  <defs
     id="defs4708">
    <linearGradient
       id="linearGradient4067-0-2-0-7">
      <stop
         id="stop4069-2-9-3-6"
         style="stop-color:#ffe452;stop-opacity:1"
         offset="0" />
      <stop
         id="stop4071-8-9-5-0"
         style="stop-color:#ffeb41;stop-opacity:0"
         offset="1" />
    </linearGradient>
    <linearGradient
       id="linearGradient8265-821-176-38-919-66-249-7-7-0-4">
      <stop
         id="stop2687-1-9-7-8"
         style="stop-color:#ff9116;stop-opacity:1"
         offset="0" />
      <stop
         id="stop2689-5-4-3-5"
         style="stop-color:#ffdf80;stop-opacity:0.375"
         offset="1" />
    </linearGradient>
    <linearGradient
       id="linearGradient3924-2">
      <stop
         id="stop3926-9"
         style="stop-color:#ffffff;stop-opacity:1"
         offset="0" />
      <stop
         id="stop3928-9"
         style="stop-color:#ffffff;stop-opacity:0.23529412"
         offset="0.06316455" />
      <stop
         id="stop3930-3"
         style="stop-color:#ffffff;stop-opacity:0.15686275"
         offset="0.95056331" />
      <stop
         id="stop3932-8"
         style="stop-color:#ffffff;stop-opacity:0.39215687"
         offset="1" />
    </linearGradient>
    <linearGradient
       id="linearGradient4644-104-3-3-6-2-3-4">
      <stop
         id="stop5237-6-5-1-7-5-2"
         style="stop-color:#ff7a35;stop-opacity:1"
         offset="0" />
      <stop
         id="stop5239-4-6-4-8-4-8"
         style="stop-color:#f0431a;stop-opacity:1"
         offset="1" />
    </linearGradient>
    <linearGradient
       id="linearGradient3895-9-0-3-7-3">
      <stop
         id="stop3897-0-5-7-8-3"
         style="stop-color:#dc5639;stop-opacity:1"
         offset="0" />
      <stop
         id="stop3899-8-7-06-9-2"
         style="stop-color:#9d0f0f;stop-opacity:1"
         offset="1" />
    </linearGradient>
    <radialGradient
       inkscape:collect="always"
       xlink:href="#linearGradient4067-0-2-0-7"
       id="radialGradient3059"
       gradientUnits="userSpaceOnUse"
       gradientTransform="matrix(8.4397352e-7,0.95747007,-2.3051772,1.8919631e-6,51.478342,-66.340297)"
       cx="7.4956832"
       cy="8.4497671"
       fx="7.4956832"
       fy="8.4497671"
       r="19.99999" />
    <linearGradient
       inkscape:collect="always"
       xlink:href="#linearGradient8265-821-176-38-919-66-249-7-7-0-4"
       id="linearGradient3062"
       gradientUnits="userSpaceOnUse"
       gradientTransform="matrix(1.1723417,0,0,1.8434143,3.808988,-5.529971)"
       x1="16.626165"
       y1="15.298182"
       x2="20.054544"
       y2="24.627615" />
    <linearGradient
       inkscape:collect="always"
       xlink:href="#linearGradient3924-2"
       id="linearGradient3065"
       gradientUnits="userSpaceOnUse"
       gradientTransform="matrix(1.4324324,0,0,1.4362832,-2.378375,-2.470783)"
       x1="23.99999"
       y1="4.999989"
       x2="23.99999"
       y2="43" />
    <radialGradient
       inkscape:collect="always"
       xlink:href="#linearGradient4644-104-3-3-6-2-3-4"
       id="radialGradient3068"
       gradientUnits="userSpaceOnUse"
       gradientTransform="matrix(2.739912e-8,3.2957551,-3.4865158,-6.0720387e-8,61.460398,-19.3824)"
       cx="7.4956832"
       cy="8.4497671"
       fx="7.4956832"
       fy="8.4497671"
       r="19.99999" />
    <linearGradient
       inkscape:collect="always"
       xlink:href="#linearGradient3895-9-0-3-7-3"
       id="linearGradient3070"
       gradientUnits="userSpaceOnUse"
       gradientTransform="matrix(1.4102564,0,0,1.4102564,-1.8461672,-1.84615)"
       x1="13.990655"
       y1="3.9626207"
       x2="13.990655"
       y2="43.2943" />
    <linearGradient
       id="linearGradient3940-2-8-5">
      <stop
         id="stop3942-1-0-6"
         style="stop-color:#f7f7f7;stop-opacity:1"
         offset="0" />
      <stop
         id="stop3944-7-3-4"
         style="stop-color:#fef2cc;stop-opacity:1"
         offset="1" />
    </linearGradient>
    <linearGradient
       inkscape:collect="always"
       xlink:href="#linearGradient3940-2-8-5"
       id="linearGradient4884"
       gradientUnits="userSpaceOnUse"
       gradientTransform="matrix(0.16417111,0,0,0.17025153,-1.9196241,4.4663856)"
       x1="229.55132"
       y1="23.270821"
       x2="229.55132"
       y2="296.5676" />
    <linearGradient
       inkscape:collect="always"
       xlink:href="#linearGradient3940-2-8-5"
       id="linearGradient4891"
       gradientUnits="userSpaceOnUse"
       gradientTransform="matrix(0.16417111,0,0,0.17025153,-1.9196241,4.4663856)"
       x1="174.02338"
       y1="23.270821"
       x2="174.02338"
       y2="298.90717" />
    <linearGradient
       inkscape:collect="always"
       xlink:href="#linearGradient3940-2-8-5"
       id="linearGradient4893"
       gradientUnits="userSpaceOnUse"
       gradientTransform="matrix(0.1639048,-0.00934725,0.00969345,0.16997535,-3.7219859,6.6258711)"
       x1="240.4695"
       y1="111.95406"
       x2="231.1321"
       y2="269.83862" />
    <linearGradient
       inkscape:collect="always"
       xlink:href="#linearGradient3940-2-8-5"
       id="linearGradient4895"
       gradientUnits="userSpaceOnUse"
       gradientTransform="matrix(0.16417111,0,0,0.17025153,-1.9196241,4.4663856)"
       x1="229.55132"
       y1="142.12305"
       x2="229.55132"
       y2="296.5676" />
    <radialGradient
       inkscape:collect="always"
       xlink:href="#linearGradient3688-166-749-6"
       id="radialGradient4225"
       gradientUnits="userSpaceOnUse"
       gradientTransform="matrix(2.003784,0,0,1.4,27.98813,-17.4)"
       cx="4.9929786"
       cy="43.5"
       fx="4.9929786"
       fy="43.5"
       r="2.5" />
    <linearGradient
       id="linearGradient3688-166-749-6">
      <stop
         offset="0"
         style="stop-color:#181818;stop-opacity:1"
         id="stop2883-4" />
      <stop
         offset="1"
         style="stop-color:#181818;stop-opacity:0"
         id="stop2885-1" />
    </linearGradient>
    <radialGradient
       inkscape:collect="always"
       xlink:href="#linearGradient3688-464-309-6"
       id="radialGradient4227"
       gradientUnits="userSpaceOnUse"
       gradientTransform="matrix(2.003784,0,0,1.4,-20.01187,-104.4)"
       cx="4.9929786"
       cy="43.5"
       fx="4.9929786"
       fy="43.5"
       r="2.5" />
    <linearGradient
       id="linearGradient3688-464-309-6">
      <stop
         offset="0"
         style="stop-color:#181818;stop-opacity:1"
         id="stop2889-5" />
      <stop
         offset="1"
         style="stop-color:#181818;stop-opacity:0"
         id="stop2891-9" />
    </linearGradient>
    <linearGradient
       inkscape:collect="always"
       xlink:href="#linearGradient3702-501-757-1"
       id="linearGradient4229"
       gradientUnits="userSpaceOnUse"
       x1="25.058096"
       y1="47.027729"
       x2="25.058096"
       y2="39.999443" />
    <linearGradient
       id="linearGradient3702-501-757-1">
      <stop
         offset="0"
         style="stop-color:#181818;stop-opacity:0"
         id="stop2895-6" />
      <stop
         offset="0.5"
         style="stop-color:#181818;stop-opacity:1"
         id="stop2897-3" />
      <stop
         offset="1"
         style="stop-color:#181818;stop-opacity:0"
         id="stop2899-4" />
    </linearGradient>
    <linearGradient
       inkscape:collect="always"
       xlink:href="#linearGradient3895-9-0-3-5-7-74"
       id="linearGradient5045-7"
       gradientUnits="userSpaceOnUse"
       gradientTransform="matrix(1.4033162,0,0,1.3800589,-60.324805,-2.501473)"
       x1="27.096104"
       y1="10.880992"
       x2="27.096104"
       y2="39.150768" />
    <linearGradient
       id="linearGradient3895-9-0-3-5-7-74">
      <stop
         id="stop3897-0-5-7-89-9-2"
         style="stop-color:#dc5639;stop-opacity:1"
         offset="0" />
      <stop
         id="stop3899-8-7-06-3-5-1"
         style="stop-color:#9d0f0f;stop-opacity:1"
         offset="1" />
    </linearGradient>
    <linearGradient
       inkscape:collect="always"
       xlink:href="#linearGradient3895-9-0-3-5-7-74"
       id="linearGradient3193"
       gradientUnits="userSpaceOnUse"
       gradientTransform="matrix(1.3001539,0,0,1.2305218,-53.537713,2.8484654)"
       x1="27.096104"
       y1="10.880992"
       x2="27.096104"
       y2="39.150768" />
    <linearGradient
       id="linearGradient3895-9-0-3-5-7-74-2">
      <stop
         id="stop3897-0-5-7-89-9-2-5"
         style="stop-color:#dc5639;stop-opacity:1"
         offset="0" />
      <stop
         id="stop3899-8-7-06-3-5-1-1"
         style="stop-color:#9d0f0f;stop-opacity:1"
         offset="1" />
    </linearGradient>
    <linearGradient
       y2="39.150768"
       x2="27.096104"
       y1="10.880992"
       x1="27.096104"
       gradientTransform="matrix(1.3001539,0,0,1.2305218,-53.537713,2.8484654)"
       gradientUnits="userSpaceOnUse"
       id="linearGradient3978"
       xlink:href="#linearGradient3895-9-0-3-5-7-74-2"
       inkscape:collect="always" />
    <linearGradient
       id="linearGradient3895-9-0-3-5-7-74-7">
      <stop
         id="stop3897-0-5-7-89-9-2-8"
         style="stop-color:#dc5639;stop-opacity:1"
         offset="0" />
      <stop
         id="stop3899-8-7-06-3-5-1-5"
         style="stop-color:#9d0f0f;stop-opacity:1"
         offset="1" />
    </linearGradient>
    <linearGradient
       y2="39.150768"
       x2="27.096104"
       y1="10.880992"
       x1="27.096104"
       gradientTransform="matrix(1.3001539,0,0,1.2305218,-53.537713,2.8484654)"
       gradientUnits="userSpaceOnUse"
       id="linearGradient3978-9"
       xlink:href="#linearGradient3895-9-0-3-5-7-74-7"
       inkscape:collect="always" />
  </defs>
  <metadata
     id="metadata4711">
    <rdf:RDF>
      <cc:Work
         rdf:about="">
        <dc:format>image/svg+xml</dc:format>
        <dc:type
           rdf:resource="http://purl.org/dc/dcmitype/StillImage" />
        <dc:title />
      </cc:Work>
    </rdf:RDF>
  </metadata>
  <g
     style="display:inline"
     id="g2036"
     transform="matrix(1.5000021,0,0,0.5555561,-4.000065,35.388879)">
    <g
       style="opacity:0.4"
       id="g3712"
       transform="matrix(1.052632,0,0,1.285713,-1.263158,-13.42854)">
      <rect
         style="fill:url(#radialGradient4225);fill-opacity:1;stroke:none"
         id="rect2801"
         y="40"
         x="38"
         height="7"
         width="5" />
      <rect
         style="fill:url(#radialGradient4227);fill-opacity:1;stroke:none"
         id="rect3696"
         transform="scale(-1,-1)"
         y="-47"
         x="-10"
         height="7"
         width="5" />
      <rect
         style="fill:url(#linearGradient4229);fill-opacity:1;stroke:none"
         id="rect3700"
         y="40"
         x="10"
         height="7.0000005"
         width="28" />
    </g>
  </g>
  <rect
     style="color:#000000;fill:url(#radialGradient3068);fill-opacity:1;fill-rule:nonzero;stroke:url(#linearGradient3070);stroke-width:0.99999994;stroke-linecap:round;stroke-linejoin:round;stroke-miterlimit:4;stroke-opacity:1;stroke-dasharray:none;stroke-dashoffset:0;marker:none;visibility:visible;display:inline;overflow:visible;enable-background:accumulate"
     id="rect5505-21-3"
     y="4.5"
     x="4.5"
     ry="3"
     rx="3"
     height="55"
     width="55" />
  <rect
     style="opacity:0.5;fill:none;stroke:url(#linearGradient3065);stroke-width:1;stroke-linecap:round;stroke-linejoin:round;stroke-miterlimit:4;stroke-opacity:1;stroke-dasharray:none;stroke-dashoffset:0"
     id="rect6741-5"
     y="5.4287605"
     x="5.5"
     ry="2"
     rx="2"
     height="53.142479"
     width="53" />
  <path
     inkscape:connector-curvature="0"
     style="opacity:0.4;color:#000000;fill:url(#linearGradient3062);fill-opacity:1;fill-rule:evenodd;stroke:none;marker:none;visibility:visible;display:inline;overflow:visible;enable-background:accumulate"
     id="path3333-8"
     d="M 6.729303,5 C 5.764138,5 5,6.2926588 5,7.5499999 L 5.017966,39 C 6.571415,38.965765 57.820897,26.466881 59,25.865671 L 59,7.5499999 C 59,6.5889276 58.245161,5 57.40943,5 L 6.729307,5 z" />
  <text
     style="font-size:3.00543976px;text-anchor:middle;opacity:0.5;color:#000000;fill:url(#linearGradient4884);fill-opacity:1;fill-rule:nonzero;stroke:#ffffff;stroke-width:0.98542732;stroke-linecap:butt;stroke-linejoin:miter;stroke-miterlimit:4;stroke-opacity:1;stroke-dasharray:none;stroke-dashoffset:0;marker:none;visibility:visible;display:inline;overflow:visible;enable-background:accumulate;font-family:Arial"
     xml:space="preserve"
     font-size="24"
     id="svg_12"
     y="33.563068"
     x="14.332154" />
  <path
     sodipodi:type="inkscape:offset"
     inkscape:radius="3.1353824"
     inkscape:original="M 29.09375 14.0625 C 32.872161 18.543694 27.223165 25.336342 20.28125 36.78125 C 13.339335 48.22616 28.856194 54.013342 30.09375 54.125 C 31.331306 54.236657 24.073921 49.748616 26.375 42.9375 C 28.67608 36.126383 34.205368 32.262023 35.59375 27.0625 C 36.982132 21.862977 25.31534 9.5813067 29.09375 14.0625 z M 37.90625 27.0625 C 38.28293 27.79958 38.449533 29.12844 38.03125 30.71875 C 37.612968 32.30906 37.040165 33.499332 35.75 35.4375 C 34.459833 37.375668 33.30499 38.647571 30.6875 42.78125 C 28.070011 46.914929 33.149323 50.996209 32.21875 49.59375 C 31.288178 48.191291 32.601555 45.456786 33.90625 43.625 C 35.210945 41.793215 36.070745 40.925964 37.34375 39.15625 C 38.616758 37.386534 39.834027 34.632236 39.84375 33.09375 C 39.85345 31.555263 39.850017 31.060605 39.21875 29.40625 C 38.58748 27.751896 37.152886 25.588339 37.90625 27.0625 z M 42.8125 31.75 C 43.974696 33.84304 43.074605 37.773313 41.625 40.375 C 40.175397 42.976683 36.786789 45.405985 35.71875 48.15625 C 34.650711 50.906515 34.837402 54.085571 35.4375 53.0625 C 36.037598 52.03943 36.047191 51.379855 40.4375 47.625 C 44.827807 43.870146 45.4755 40.980276 45.5 38.53125 C 45.524497 36.082226 44.979641 34.997657 44 33.5 C 43.020362 32.002342 41.650313 29.656959 42.8125 31.75 z "
     style="opacity:0.05;color:#000000;fill:url(#linearGradient3978-9);fill-opacity:1;fill-rule:nonzero;stroke:none;stroke-width:1.09870386;marker:none;visibility:visible;display:inline;overflow:visible;enable-background:accumulate"
     id="path3191-6"
     d="m 27.8125,10 c -6.99e-4,1.18e-4 -2.062145,1.343227 -2.0625,1.34375 -3.55e-4,5.23e-4 -0.562492,1.71782 -0.5625,1.71875 -8e-6,9.3e-4 0.07987,0.63613 0.125,0.8125 0.04513,0.17637 0.08803,0.313213 0.125,0.40625 0.07395,0.186074 0.113861,0.266201 0.15625,0.34375 0.339109,0.620394 0.345489,0.523236 0.5,0.71875 0.154511,0.195514 0.343197,0.452844 0.59375,0.75 0.444783,0.527513 0.527972,0.7602 0.46875,1.5625 -0.05922,0.8023 -0.437988,2.124188 -1.25,3.78125 -1.624023,3.314124 -4.78861,7.909028 -8.3125,13.71875 -2.064848,3.404247 -2.624449,6.871877 -1.9375,9.84375 0.686949,2.971873 2.448282,5.300296 4.34375,7.03125 1.895468,1.730954 3.966827,2.947011 5.6875,3.78125 0.860336,0.41712 1.640597,0.737168 2.28125,0.96875 0.640653,0.231582 0.773998,0.372232 1.84375,0.46875 0.238554,0.02152 0.537848,0.0395 1.09375,-0.09375 0.555902,-0.133248 1.568229,-0.592581 2.09375,-1.5625 0.01819,-0.03357 0.01459,-0.06032 0.03125,-0.09375 0.503684,0.462665 1.526671,0.965364 2.5,0.875 1.967324,-0.182646 2.35277,-1.254641 2.625,-1.71875 0.445136,-0.758886 0.355876,-0.794786 0.78125,-1.3125 0.425374,-0.517714 1.404154,-1.52453 3.53125,-3.34375 4.878443,-4.172337 6.126467,-8.460419 6.15625,-11.4375 0.02924,-2.92325 -0.932299,-5.148968 -2,-6.78125 -0.445917,-0.681713 -1.035749,-1.613011 -1.375,-2.15625 -0.08481,-0.13581 -0.13935,-0.255067 -0.21875,-0.375 -0.0397,-0.05997 -0.0103,-0.0582 -0.21875,-0.3125 -0.05211,-0.06358 -0.129955,-0.148749 -0.34375,-0.34375 -0.05345,-0.04875 -0.187224,-0.15604 -0.1875,-0.15625 -2.76e-4,-2.1e-4 -0.406025,-0.281128 -0.40625,-0.28125 -2.25e-4,-1.22e-4 -0.937327,-0.312467 -0.9375,-0.3125 -8.5e-5,-1.6e-5 -0.465843,0.06532 -0.9375,0.125 -0.408757,-0.98746 -0.893707,-1.895386 -1.28125,-2.53125 -0.108817,-0.178543 -0.19671,-0.333622 -0.3125,-0.5 -0.0579,-0.08319 -0.115859,-0.186459 -0.21875,-0.3125 -0.102891,-0.126041 0.06157,-0.207849 -0.96875,-0.78125 -0.128791,-0.07167 -0.273232,-0.172743 -0.5,-0.25 -0.06742,-0.02297 -0.161886,-0.0088 -0.28125,-0.03125 C 38.173168,22.651372 37.863084,21.726426 37.46875,20.875 36.494316,18.771049 35.208069,16.774949 34,15.09375 32.791931,13.412551 31.682229,12.100322 31.03125,11.375 30.868505,11.19367 30.754573,11.058529 30.5625,10.875 30.466464,10.783235 30.769913,10.787864 29.75,10.28125 29.622511,10.217923 29.435134,10.138832 29.15625,10.0625 28.877366,9.9861678 27.813199,9.9998824 27.8125,10 z"
     transform="translate(0,-0.99997584)" />
  <path
     sodipodi:type="inkscape:offset"
     inkscape:radius="2.1357012"
     inkscape:original="M 29.09375 14.0625 C 32.872161 18.543694 27.223165 25.336342 20.28125 36.78125 C 13.339335 48.22616 28.856194 54.013342 30.09375 54.125 C 31.331306 54.236657 24.073921 49.748616 26.375 42.9375 C 28.67608 36.126383 34.205368 32.262023 35.59375 27.0625 C 36.982132 21.862977 25.31534 9.5813067 29.09375 14.0625 z M 37.90625 27.0625 C 38.28293 27.79958 38.449533 29.12844 38.03125 30.71875 C 37.612968 32.30906 37.040165 33.499332 35.75 35.4375 C 34.459833 37.375668 33.30499 38.647571 30.6875 42.78125 C 28.070011 46.914929 33.149323 50.996209 32.21875 49.59375 C 31.288178 48.191291 32.601555 45.456786 33.90625 43.625 C 35.210945 41.793215 36.070745 40.925964 37.34375 39.15625 C 38.616758 37.386534 39.834027 34.632236 39.84375 33.09375 C 39.85345 31.555263 39.850017 31.060605 39.21875 29.40625 C 38.58748 27.751896 37.152886 25.588339 37.90625 27.0625 z M 42.8125 31.75 C 43.974696 33.84304 43.074605 37.773313 41.625 40.375 C 40.175397 42.976683 36.786789 45.405985 35.71875 48.15625 C 34.650711 50.906515 34.837402 54.085571 35.4375 53.0625 C 36.037598 52.03943 36.047191 51.379855 40.4375 47.625 C 44.827807 43.870146 45.4755 40.980276 45.5 38.53125 C 45.524497 36.082226 44.979641 34.997657 44 33.5 C 43.020362 32.002342 41.650313 29.656959 42.8125 31.75 z "
     style="opacity:0.1;color:#000000;fill:url(#linearGradient3978);fill-opacity:1;fill-rule:nonzero;stroke:none;stroke-width:1.09870386;marker:none;visibility:visible;display:inline;overflow:visible;enable-background:accumulate"
     id="path3191-3"
     d="m 28,11 c -6.99e-4,1.18e-4 -1.437145,0.905727 -1.4375,0.90625 -3.55e-4,5.23e-4 -0.374992,1.18657 -0.375,1.1875 -8e-6,9.3e-4 0.0629,0.410686 0.09375,0.53125 0.03085,0.120564 0.03709,0.217317 0.0625,0.28125 0.05082,0.127865 0.09522,0.195525 0.125,0.25 0.23821,0.435801 0.261964,0.411174 0.40625,0.59375 0.144286,0.182576 0.347789,0.39579 0.59375,0.6875 0.604145,0.716516 0.761866,1.305026 0.6875,2.3125 -0.07437,1.007474 -0.533709,2.408188 -1.375,4.125 -1.682582,3.433625 -4.805487,8.030602 -8.3125,13.8125 -1.959832,3.231112 -2.470402,6.382731 -1.84375,9.09375 0.626652,2.711019 2.266632,4.860002 4.0625,6.5 1.795868,1.639998 3.780724,2.82174 5.4375,3.625 0.828388,0.40163 1.582393,0.687517 2.1875,0.90625 0.605107,0.218733 0.815754,0.367306 1.59375,0.4375 0.174824,0.01577 0.395375,0.02999 0.78125,-0.0625 0.385875,-0.09249 1.045832,-0.397301 1.40625,-1.0625 0.360418,-0.665199 0.276567,-1.325137 0.1875,-1.65625 -0.08907,-0.331113 -0.169991,-0.492198 -0.25,-0.625 -0.320036,-0.531206 -0.506037,-0.64098 -0.75,-0.90625 -0.08206,-0.08923 -0.192168,-0.246471 -0.28125,-0.34375 0.0592,0.03846 0.08088,0.08352 0.15625,0.125 0.224415,0.12351 0.501127,0.523878 1.6875,0.1875 -5.17e-4,0.02726 -0.03093,0.06679 -0.03125,0.09375 -0.0076,0.648294 -0.06536,1.094461 0.3125,1.96875 0.09447,0.218572 0.21518,0.486556 0.5625,0.8125 0.34732,0.325944 1.070331,0.65685 1.75,0.59375 1.359339,-0.126201 1.634401,-0.861843 1.84375,-1.21875 0.398877,-0.680021 0.385595,-0.841855 0.875,-1.4375 0.489405,-0.595645 1.507454,-1.630971 3.65625,-3.46875 4.722806,-4.039227 5.784402,-7.878784 5.8125,-10.6875 0.02773,-2.772048 -0.804126,-4.629392 -1.84375,-6.21875 -0.459915,-0.703112 -1.041985,-1.654246 -1.375,-2.1875 -0.08325,-0.133314 -0.151674,-0.242431 -0.21875,-0.34375 -0.03354,-0.05066 -0.01157,-0.0735 -0.15625,-0.25 -0.03617,-0.04413 -0.0727,-0.08554 -0.21875,-0.21875 -0.03651,-0.0333 -0.155974,-0.12479 -0.15625,-0.125 -2.76e-4,-2.1e-4 -0.281025,-0.187378 -0.28125,-0.1875 -2.25e-4,-1.22e-4 -0.593577,-0.218717 -0.59375,-0.21875 -1.73e-4,-3.3e-5 -1.312379,0.187443 -1.3125,0.1875 -1.5e-5,7e-6 -0.09847,0.0984 -0.125,0.125 -0.05742,-0.168442 -0.05605,-0.28806 -0.125,-0.46875 C 40.821559,27.61534 40.280974,26.603603 39.875,25.9375 39.773507,25.770974 39.659982,25.640071 39.5625,25.5 c -0.04874,-0.07004 -0.07975,-0.125036 -0.15625,-0.21875 -0.0765,-0.09371 0.04863,-0.170217 -0.65625,-0.5625 -0.08811,-0.04903 -0.220208,-0.103514 -0.375,-0.15625 -0.154792,-0.05274 -0.624157,-0.124975 -0.625,-0.125 -5.4e-5,-2e-6 -0.05512,-0.0015 -0.0625,0 -0.226322,-1.067828 -0.650342,-2.100141 -1.125,-3.125 -0.931406,-2.011047 -2.190093,-3.976034 -3.375,-5.625 -1.184907,-1.648966 -2.259173,-2.970094 -2.875,-3.65625 -0.153957,-0.171539 -0.286509,-0.293225 -0.4375,-0.4375 -0.0755,-0.07214 0.104487,-0.05942 -0.59375,-0.40625 -0.08728,-0.04335 -0.184704,-0.104165 -0.375,-0.15625 C 28.715954,10.979165 28.000699,10.999882 28,11 z m 11.90625,27.875 c -0.07002,0.140835 -0.08369,0.338521 -0.15625,0.46875 -0.05693,0.102168 -0.242094,0.266485 -0.3125,0.375 0.172306,-0.266272 0.307921,-0.562347 0.46875,-0.84375 z M 28.1875,46.96875 c 0.03122,0.125234 0.08872,0.22262 0.125,0.34375 -0.03406,-0.117265 -0.0977,-0.223306 -0.125,-0.34375 z"
     transform="translate(0,-0.99997584)" />
  <path
     sodipodi:type="inkscape:offset"
     inkscape:radius="1.1461072"
     inkscape:original="M 29.09375 14.0625 C 32.872161 18.543694 27.223165 25.336342 20.28125 36.78125 C 13.339335 48.22616 28.856194 54.013342 30.09375 54.125 C 31.331306 54.236657 24.073921 49.748616 26.375 42.9375 C 28.67608 36.126383 34.205368 32.262023 35.59375 27.0625 C 36.982132 21.862977 25.31534 9.5813067 29.09375 14.0625 z M 37.90625 27.0625 C 38.28293 27.79958 38.449533 29.12844 38.03125 30.71875 C 37.612968 32.30906 37.040165 33.499332 35.75 35.4375 C 34.459833 37.375668 33.30499 38.647571 30.6875 42.78125 C 28.070011 46.914929 33.149323 50.996209 32.21875 49.59375 C 31.288178 48.191291 32.601555 45.456786 33.90625 43.625 C 35.210945 41.793215 36.070745 40.925964 37.34375 39.15625 C 38.616758 37.386534 39.834027 34.632236 39.84375 33.09375 C 39.85345 31.555263 39.850017 31.060605 39.21875 29.40625 C 38.58748 27.751896 37.152886 25.588339 37.90625 27.0625 z M 42.8125 31.75 C 43.974696 33.84304 43.074605 37.773313 41.625 40.375 C 40.175397 42.976683 36.786789 45.405985 35.71875 48.15625 C 34.650711 50.906515 34.837402 54.085571 35.4375 53.0625 C 36.037598 52.03943 36.047191 51.379855 40.4375 47.625 C 44.827807 43.870146 45.4755 40.980276 45.5 38.53125 C 45.524497 36.082226 44.979641 34.997657 44 33.5 C 43.020362 32.002342 41.650313 29.656959 42.8125 31.75 z "
     style="opacity:0.25;color:#000000;fill:url(#linearGradient3193);fill-opacity:1;fill-rule:nonzero;stroke:none;stroke-width:1.09870386;marker:none;visibility:visible;display:inline;overflow:visible;enable-background:accumulate"
     id="path3191"
     d="m 28.15625,11.96875 c -6.99e-4,1.18e-4 -0.780895,0.499477 -0.78125,0.5 -3.55e-4,5.23e-4 -0.187492,0.62407 -0.1875,0.625 -8e-6,9.3e-4 0.01454,0.215929 0.03125,0.28125 0.01671,0.06532 0.04854,0.121128 0.0625,0.15625 0.02792,0.07024 0.04521,0.09337 0.0625,0.125 0.138329,0.253071 0.178335,0.298981 0.3125,0.46875 0.134165,0.169769 0.321085,0.401182 0.5625,0.6875 0.761899,0.903612 1.026859,1.789422 0.9375,3 -0.08936,1.210578 -0.598475,2.72404 -1.46875,4.5 -1.74055,3.55192 -4.884694,8.120646 -8.375,13.875 -1.855876,3.059723 -2.285714,5.922204 -1.71875,8.375 0.566964,2.452796 2.052727,4.450039 3.75,6 1.697273,1.549961 3.625225,2.664906 5.21875,3.4375 0.796762,0.386297 1.523829,0.700236 2.09375,0.90625 0.569921,0.206014 0.854566,0.330864 1.34375,0.375 0.111738,0.01008 0.219936,0.0209 0.4375,-0.03125 0.217564,-0.05215 0.615519,-0.261446 0.8125,-0.625 0.196981,-0.363554 0.144393,-0.686729 0.09375,-0.875 -0.05064,-0.188271 -0.104566,-0.289214 -0.15625,-0.375 -0.206734,-0.343144 -0.385099,-0.520397 -0.625,-0.78125 -0.479803,-0.521706 -1.150686,-1.224461 -1.78125,-2.125 -1.261129,-1.801078 -2.321665,-4.169155 -1.3125,-7.15625 1.08248,-3.204105 2.942078,-5.757129 4.78125,-8.21875 1.839172,-2.461621 3.663733,-4.852224 4.4375,-7.75 0.01634,-0.0612 -0.01382,-0.126023 0,-0.1875 0.05373,0.126994 0.09866,0.26367 0.1875,0.4375 0.184983,0.361971 0.421788,1.477739 0.0625,2.84375 -0.388593,1.477431 -0.899314,2.48675 -2.15625,4.375 -1.243516,1.868086 -2.420344,3.171116 -5.0625,7.34375 -1.579211,2.493974 -0.835521,5.104624 0.125,6.6875 0.48026,0.791438 0.98793,1.380822 1.4375,1.75 0.112393,0.09229 0.224242,0.167028 0.375,0.25 0.150758,0.08297 0.265622,0.363932 1,0.125 0.367189,-0.119466 0.755676,-0.589946 0.8125,-0.90625 0.05682,-0.316304 -0.02398,-0.502888 -0.0625,-0.625 -0.07704,-0.244223 -0.129594,-0.334383 -0.21875,-0.46875 -0.138212,-0.208298 -0.196726,-0.879419 0.125,-1.8125 0.321726,-0.933081 0.929817,-2.030591 1.53125,-2.875 1.265828,-1.777216 2.125291,-2.644534 3.4375,-4.46875 0.69997,-0.973088 1.345766,-2.162607 1.84375,-3.34375 0.497984,-1.181143 0.868256,-2.307826 0.875,-3.375 0.0097,-1.541741 -0.06085,-2.369592 -0.71875,-4.09375 -0.359402,-0.941875 -0.873026,-1.912729 -1.25,-2.53125 -0.09424,-0.15463 -0.201891,-0.29222 -0.28125,-0.40625 -0.03968,-0.05701 -0.07462,-0.09454 -0.125,-0.15625 -0.05038,-0.06171 0.0077,-0.130758 -0.375,-0.34375 -0.04784,-0.02662 -0.103958,-0.03404 -0.1875,-0.0625 -0.08354,-0.02846 -0.342907,-0.06247 -0.34375,-0.0625 -8.43e-4,-2.5e-5 -0.49934,0.09345 -0.5,0.09375 -6.6e-4,3.02e-4 -0.437026,0.343116 -0.4375,0.34375 -1.72e-4,2.29e-4 -0.05949,0.09948 -0.09375,0.15625 0.0017,-1.406131 -0.32329,-2.851381 -1,-4.3125 -0.888813,-1.919082 -2.150521,-3.851691 -3.3125,-5.46875 -1.161979,-1.617059 -2.23147,-2.883866 -2.8125,-3.53125 -0.145258,-0.161846 -0.264677,-0.300834 -0.375,-0.40625 -0.05516,-0.05271 0.03606,-0.06134 -0.34375,-0.25 -0.04748,-0.02358 -0.0849,-0.03442 -0.1875,-0.0625 -0.102603,-0.02808 -0.499301,-0.03137 -0.5,-0.03125 z m 14.4375,17.8125 c -1.73e-4,-3.3e-5 -0.718629,0.09369 -0.71875,0.09375 -1.21e-4,5.7e-5 -0.531181,0.562353 -0.53125,0.5625 -6.9e-5,1.47e-4 -0.124984,0.406012 -0.125,0.40625 -1.6e-5,2.38e-4 -3.7e-5,0.21842 0,0.21875 3.7e-5,3.3e-4 0.02504,0.06477 0.03125,0.09375 0.02482,0.115905 0.05029,0.155823 0.0625,0.1875 0.0977,0.253418 0.08012,0.233802 0.15625,0.375 0.07613,0.141198 0.19733,0.330054 0.34375,0.59375 0.372336,0.670553 0.486401,1.953225 0.25,3.375 -0.236401,1.421775 -0.783042,2.950407 -1.4375,4.125 -0.61381,1.101639 -1.761406,2.333042 -2.9375,3.625 -1.176094,1.291958 -2.390386,2.662235 -3.03125,4.3125 -0.596122,1.535049 -0.830136,3.085898 -0.84375,4.25 -0.0068,0.582051 -0.02351,1.001973 0.21875,1.5625 0.06056,0.140132 0.145331,0.313793 0.34375,0.5 0.198419,0.186207 0.590006,0.378913 0.96875,0.34375 0.757489,-0.07032 0.946647,-0.499213 1.09375,-0.75 0.353084,-0.601951 0.41596,-0.889711 0.96875,-1.5625 0.55279,-0.672789 1.610973,-1.7376 3.78125,-3.59375 4.56874,-3.907461 5.442319,-7.326699 5.46875,-9.96875 0.02623,-2.622372 -0.675669,-4.109382 -1.6875,-5.65625 -0.473771,-0.724295 -1.079408,-1.69538 -1.40625,-2.21875 -0.08171,-0.130843 -0.132623,-0.229608 -0.1875,-0.3125 -0.02744,-0.04145 -0.04345,-0.05676 -0.125,-0.15625 -0.02039,-0.02487 -0.01477,-0.05296 -0.09375,-0.125 -0.01975,-0.01801 -0.09347,-0.06229 -0.09375,-0.0625 -2.76e-4,-2.1e-4 -0.156025,-0.09363 -0.15625,-0.09375 -2.25e-4,-1.22e-4 -0.312327,-0.124967 -0.3125,-0.125 z"
     transform="translate(0,-0.99997584)" />
  <rect
     style="opacity:0.5;color:#000000;fill:url(#radialGradient3059);fill-opacity:1;fill-rule:nonzero;stroke:none;stroke-width:1;marker:none;visibility:visible;display:inline;overflow:visible;enable-background:accumulate"
     id="rect5505-2-6-47-4"
     transform="scale(1,-1)"
     y="-60"
     x="4"
     ry="3"
     rx="3"
     height="56"
     width="56" />
  <g
     id="g4886"
     transform="matrix(0.92648679,0,0,0.8916444,2.3524226,4.0789141)">
    <path
       d="M 28.858447,10.083068 C 32.93666,15.108832 26.83395,22.730961 19.341221,35.566693 11.848491,48.402426 28.607997,54.872488 29.943749,54.997715 31.2795,55.122941 23.431959,50.092986 25.91562,42.45416 28.399282,34.815333 34.372595,30.490831 35.87114,24.659445 37.369685,18.828059 24.780234,5.0573052 28.858447,10.083068 z"
       id="svg_24"
       inkscape:connector-curvature="0"
       style="color:#000000;fill:url(#linearGradient4891);fill-opacity:1;fill-rule:nonzero;stroke:#ffffff;stroke-width:1.08419931;stroke-linecap:butt;stroke-linejoin:miter;stroke-miterlimit:4;stroke-opacity:1;stroke-dasharray:none;stroke-dashoffset:0;marker:none;visibility:visible;display:inline;overflow:visible;enable-background:accumulate" />
    <path
       d="m 38.363944,24.648014 c 0.406568,0.826652 0.596689,2.337777 0.145217,4.121346 -0.451471,1.78357 -1.084353,3.110933 -2.476887,5.284634 -1.392537,2.173701 -2.638828,3.593051 -5.464006,8.229069 -2.825177,4.636017 2.67726,9.210395 1.67285,7.637504 -1.00441,-1.57289 0.40013,-4.636169 1.808347,-6.690559 1.408218,-2.05439 2.360966,-3.009617 3.734979,-4.994393 1.374017,-1.984777 2.680116,-5.101606 2.690611,-6.827054 0.01049,-1.725449 -0.01015,-2.275008 -0.691502,-4.130406 -0.681359,-1.855396 -2.232749,-4.283447 -1.419609,-2.630141 z"
       id="svg_25"
       inkscape:connector-curvature="0"
       style="color:#000000;fill:url(#linearGradient4893);fill-opacity:1;fill-rule:nonzero;stroke:#ffffff;stroke-width:1.08419931;stroke-linecap:butt;stroke-linejoin:miter;stroke-miterlimit:4;stroke-opacity:1;stroke-dasharray:none;stroke-dashoffset:0;marker:none;visibility:visible;display:inline;overflow:visible;enable-background:accumulate" />
    <path
       d="m 35.698437,53.81533 c -0.647713,1.147398 -0.832533,-2.415768 0.320251,-5.500255 1.152784,-3.084486 4.791693,-5.797511 6.356316,-8.715359 1.564626,-2.917853 2.552701,-7.330375 1.29829,-9.677768 -1.254403,-2.347395 0.221501,0.270172 1.278869,1.949831 1.057372,1.679657 1.652458,2.913981 1.626017,5.660619 -0.02644,2.74664 -0.744167,5.966996 -5.482828,10.178152 -4.738663,4.211158 -4.749201,4.957383 -5.396915,6.10478 z"
       id="svg_26"
       inkscape:connector-curvature="0"
       style="color:#000000;fill:url(#linearGradient4895);fill-opacity:1;fill-rule:nonzero;stroke:#ffffff;stroke-width:1.08419931;stroke-linecap:butt;stroke-linejoin:miter;stroke-miterlimit:4;stroke-opacity:1;stroke-dasharray:none;stroke-dashoffset:0;marker:none;visibility:visible;display:inline;overflow:visible;enable-background:accumulate" />
  </g>
</svg>
