<?xml version="1.0" encoding="UTF-8" standalone="no"?>
<!-- Created with Inkscape (http://www.inkscape.org/) -->

<svg
   xmlns:dc="http://purl.org/dc/elements/1.1/"
   xmlns:cc="http://creativecommons.org/ns#"
   xmlns:rdf="http://www.w3.org/1999/02/22-rdf-syntax-ns#"
   xmlns:svg="http://www.w3.org/2000/svg"
   xmlns="http://www.w3.org/2000/svg"
   xmlns:xlink="http://www.w3.org/1999/xlink"
   xmlns:sodipodi="http://sodipodi.sourceforge.net/DTD/sodipodi-0.dtd"
   xmlns:inkscape="http://www.inkscape.org/namespaces/inkscape"
   width="64px"
   height="64px"
   id="svg3952"
   version="1.1"
   inkscape:version="0.48.2 r9819"
   sodipodi:docname="core.svg"
   inkscape:export-filename="/home/daniel/core.png"
   inkscape:export-xdpi="90"
   inkscape:export-ydpi="90">
  <defs
     id="defs3954">
    <linearGradient
       id="linearGradient4223">
      <stop
         style="stop-color:#8c8c8c;stop-opacity:1;"
         offset="0"
         id="stop4225" />
      <stop
         style="stop-color:#ababab;stop-opacity:1;"
         offset="1"
         id="stop4227" />
    </linearGradient>
    <linearGradient
       id="linearGradient4215">
      <stop
         style="stop-color:#dcdcdc;stop-opacity:1;"
         offset="0"
         id="stop4217" />
      <stop
         style="stop-color:#f0f0f0;stop-opacity:1;"
         offset="1"
         id="stop4219" />
    </linearGradient>
    <linearGradient
       inkscape:collect="always"
       xlink:href="#linearGradient4661"
       id="linearGradient3086"
       gradientUnits="userSpaceOnUse"
       x1="24.693371"
       y1="34.39452"
       x2="24.693371"
       y2="39.173557"
       gradientTransform="matrix(1.5723056,0,0,1.8012335,-5.4307177,-45.12205)" />
    <linearGradient
       id="linearGradient4661"
       inkscape:collect="always">
      <stop
         id="stop4663"
         offset="0"
         style="stop-color:#000000;stop-opacity:1;" />
      <stop
         id="stop4665"
         offset="1"
         style="stop-color:#000000;stop-opacity:0;" />
    </linearGradient>
    <linearGradient
       inkscape:collect="always"
       xlink:href="#linearGradient4011"
       id="linearGradient3096"
       gradientUnits="userSpaceOnUse"
       gradientTransform="matrix(1.3243242,0,0,1.3243242,-62.998438,0.4187932)"
       x1="71.204407"
       y1="6.2375584"
       x2="71.204407"
       y2="44.340794" />
    <linearGradient
       id="linearGradient4011">
      <stop
         id="stop4013"
         style="stop-color:#ffffff;stop-opacity:1;"
         offset="0" />
      <stop
         offset="0.507761"
         style="stop-color:#ffffff;stop-opacity:0.23529412;"
         id="stop4015" />
      <stop
         id="stop4017"
         style="stop-color:#ffffff;stop-opacity:0.15686275;"
         offset="0.83456558" />
      <stop
         id="stop4019"
         style="stop-color:#ffffff;stop-opacity:0.39215687;"
         offset="1" />
    </linearGradient>
    <linearGradient
       id="linearGradient8838">
      <stop
         id="stop8840"
         style="stop-color:#000000;stop-opacity:1"
         offset="0" />
      <stop
         id="stop8842"
         style="stop-color:#000000;stop-opacity:0"
         offset="1" />
    </linearGradient>
    <radialGradient
       r="10.625"
       fy="4.625"
       fx="62.625"
       cy="4.625"
       cx="62.625"
       gradientTransform="matrix(2.9176471,0,0,0.988234,-150.71765,48.92941)"
       gradientUnits="userSpaceOnUse"
       id="radialGradient3950"
       xlink:href="#linearGradient8838"
       inkscape:collect="always" />
    <linearGradient
       id="linearGradient4661-8"
       inkscape:collect="always">
      <stop
         id="stop4663-8"
         offset="0"
         style="stop-color:#000000;stop-opacity:1;" />
      <stop
         id="stop4665-4"
         offset="1"
         style="stop-color:#000000;stop-opacity:0;" />
    </linearGradient>
    <linearGradient
       inkscape:collect="always"
       xlink:href="#linearGradient4661-8"
       id="linearGradient3143"
       gradientUnits="userSpaceOnUse"
       gradientTransform="matrix(1.5723056,0,0,1.8012335,-5.4307177,-44.170129)"
       x1="25.068182"
       y1="38.638695"
       x2="25.068182"
       y2="53.700127" />
    <linearGradient
       inkscape:collect="always"
       xlink:href="#linearGradient4215"
       id="linearGradient4221"
       x1="38.976662"
       y1="59.967686"
       x2="38.976662"
       y2="8.0928917"
       gradientUnits="userSpaceOnUse" />
    <linearGradient
       inkscape:collect="always"
       xlink:href="#linearGradient4223"
       id="linearGradient4229"
       x1="21.346498"
       y1="59.968513"
       x2="21.346498"
       y2="7.8025136"
       gradientUnits="userSpaceOnUse" />
  </defs>
  <sodipodi:namedview
     id="base"
     pagecolor="#ffffff"
     bordercolor="#666666"
     borderopacity="1.0"
     inkscape:pageopacity="0.0"
     inkscape:pageshadow="2"
     inkscape:zoom="1"
     inkscape:cx="122.83752"
     inkscape:cy="32"
     inkscape:current-layer="layer1"
     showgrid="true"
     inkscape:document-units="px"
     inkscape:grid-bbox="true"
     inkscape:window-width="1280"
     inkscape:window-height="751"
     inkscape:window-x="0"
     inkscape:window-y="26"
     inkscape:window-maximized="1" />
  <metadata
     id="metadata3957">
    <rdf:RDF>
      <cc:Work
         rdf:about="">
        <dc:format>image/svg+xml</dc:format>
        <dc:type
           rdf:resource="http://purl.org/dc/dcmitype/StillImage" />
        <dc:title></dc:title>
      </cc:Work>
    </rdf:RDF>
  </metadata>
  <g
     id="layer1"
     inkscape:label="Layer 1"
     inkscape:groupmode="layer">
    <path
       inkscape:connector-curvature="0"
       style="opacity:0.3;fill:url(#radialGradient3950);fill-opacity:1;fill-rule:evenodd;stroke:none;stroke-width:0.99999988;marker:none;visibility:visible;display:inline;overflow:visible"
       id="path8836"
       d="m 63,53.499998 c 0,5.79899 -13.879175,10.5 -31,10.5 -17.120825,0 -31,-4.70101 -31,-10.5 0,-5.79899 13.879175,-10.5 31,-10.5 17.120825,0 31,4.70101 31,10.5 l 0,0 z" />
    <path
       inkscape:connector-curvature="0"
       style="color:#000000;fill:url(#linearGradient4221);fill-opacity:1;fill-rule:nonzero;stroke:url(#linearGradient4229);stroke-width:1;stroke-linecap:round;stroke-linejoin:round;stroke-miterlimit:4;stroke-opacity:1;stroke-dasharray:none;stroke-dashoffset:0;marker:none;visibility:visible;display:inline;overflow:visible;enable-background:accumulate"
       id="path2555-7"
       d="M 32.000002,8.5 C 17.929982,8.5 6.5,19.929978 6.5,33.999999 6.5,48.07002 17.929982,59.500004 32.000002,59.5 46.070017,59.5 57.500012,48.07002 57.499999,33.999999 57.499999,19.929978 46.070017,8.5 32.000002,8.5 z" />
    <path
       style="fill:#000000;fill-opacity:0.04255319;stroke:none"
       d="M 32 9 C 28.120399 9 24.43466 9.887666 21.15625 11.46875 L 30.53125 31.34375 L 14.15625 16.46875 C 9.7223669 20.981429 7 27.182648 7 34 C 7 35.80257 7.1990195 37.555057 7.5625 39.25 L 32.25 32.875 L 31.84375 32.53125 L 47.78125 14.625 C 43.476239 11.115146 37.979963 9 32 9 z M 56.09375 27.3125 L 31.53125 33.1875 L 31.625 33.25 L 10.28125 46.375 C 14.589041 53.915028 22.704643 59.000003 32 59 C 32.704501 59 33.4039 58.963561 34.09375 58.90625 C 33.195143 48.611086 31.874543 33.750868 31.84375 33.40625 L 51.6875 49.375 C 55.008772 45.130911 57.000005 39.79963 57 34 C 57 31.686011 56.683749 29.440137 56.09375 27.3125 z "
       id="path4004" />
    <path
       style="fill:#000000;fill-opacity:0.04787234;stroke:none"
       d="M 32 9 C 28.992903 9 26.109313 9.5554508 23.4375 10.53125 L 30.53125 31.34375 L 12.3125 18.59375 C 8.9822271 22.840902 7 28.191676 7 34 C 7 35.196376 7.0870361 36.379435 7.25 37.53125 L 32.25 32.875 L 31.84375 32.53125 L 45.75 13.15625 C 41.801468 10.545041 37.082173 9 32 9 z M 56.53125 29.21875 L 31.53125 33.1875 L 31.625 33.25 L 11.96875 48.9375 C 16.530249 55.034676 23.809731 59.000002 32 59 C 32.199644 59 32.395217 59.004668 32.59375 59 C 32.295944 48.618732 31.874414 33.749417 31.84375 33.40625 L 52.59375 48.125 C 55.360535 44.102023 57.000004 39.245293 57 34 C 57 32.363319 56.832367 30.768162 56.53125 29.21875 z "
       id="path4004-0" />
    <path
       style="fill:#000000;fill-opacity:0.05851064;stroke:none"
       d="M 32 9 C 29.730909 9 27.52816 9.306915 25.4375 9.875 L 31.75 32.8125 L 43.53125 11.84375 C 40.078189 10.041487 36.160376 9 32 9 z M 10.71875 20.875 C 8.3614592 24.688852 7 29.192648 7 34 C 7 34.578242 7.0237521 35.150239 7.0625 35.71875 L 31.875 32.96875 L 10.71875 20.875 z M 56.84375 31.15625 L 31.90625 32.65625 L 53.4375 46.875 C 55.70021 43.115809 57.000004 38.701953 57 34 C 57 33.041042 56.949169 32.087295 56.84375 31.15625 z M 32.03125 32.84375 L 14.34375 51.71875 C 18.701032 56.060709 24.668223 58.773047 31.25 58.96875 L 32.03125 32.84375 z "
       id="path3893-7" />
    <path
       style="fill:#000000;fill-opacity:0.06382979;stroke:none"
       d="M 32 9 C 30.629922 9 29.279317 9.0998498 27.96875 9.3125 L 31.75 32.8125 L 41.0625 10.71875 C 38.250296 9.6216942 35.197752 9 32 9 z M 9.5625 22.96875 C 7.980046 26.180044 7.0611967 29.790024 7 33.59375 L 31.875 32.96875 L 9.5625 22.96875 z M 31.90625 32.65625 L 54.28125 45.34375 C 56.018932 41.939613 57.000003 38.079989 57 34 C 57 33.652994 56.982796 33.312343 56.96875 32.96875 L 31.90625 32.65625 z M 32.03125 32.84375 L 17.5625 54.375 C 21.079362 56.874327 25.24651 58.507079 29.78125 58.90625 L 32.03125 32.84375 z "
       id="path3893-7-5" />
    <path
       style="opacity:1;fill:#000000;fill-opacity:0.10106383;stroke:none"
       d="M 32 9 C 31.369469 9 30.743892 9.0164958 30.125 9.0625 L 31.75 32.8125 L 38.0625 9.75 C 36.121353 9.2655053 34.089947 9 32 9 z M 8.59375 25.25 C 7.8561116 27.220305 7.3429862 29.299738 7.125 31.46875 L 31.875 32.96875 L 8.59375 25.25 z M 31.90625 32.65625 L 55.0625 43.65625 C 56.169451 41.021041 56.831206 38.157275 56.96875 35.15625 L 31.90625 32.65625 z M 32.03125 32.84375 L 21.125 56.5 C 23.283544 57.545562 25.6138 58.299604 28.0625 58.6875 L 32.03125 32.84375 z "
       id="path3893" />
    <path
       style="fill:#000000;fill-opacity:0.08510638;stroke:none"
       d="M 32.15625,9 31.75,32.8125 35.53125,9.25 C 34.430016,9.0941926 33.298443,9.0070678 32.15625,9 z M 8,27 c -0.2819725,0.967344 -0.5233391,1.957023 -0.6875,2.96875 l 24.5625,3 z m 23.90625,5.65625 23.8125,9.1875 c 0.45354,-1.370921 0.820407,-2.785984 1.03125,-4.25 z m 0.125,0.1875 -9.25,24.375 c 0.560268,0.223784 1.139515,0.441154 1.71875,0.625 0.512439,0.161165 1.036485,0.309081 1.5625,0.4375 0.135688,0.03337 0.269705,0.06264 0.40625,0.09375 z"
       id="path3893-9"
       inkscape:connector-curvature="0"
       sodipodi:nodetypes="cccccccccccccccccc" />
    <path
       style="color:#000000;fill:#ffffff;fill-opacity:1;fill-rule:nonzero;stroke:none;marker:none;visibility:visible;display:inline;overflow:visible;enable-background:accumulate;opacity:0.5"
       d="m 36.058469,21.893268 c 0.09818,2.516102 -2.646202,4.561473 -5.027053,3.718138 -2.418392,-0.664653 -3.534574,-3.867 -2.061088,-5.894414 1.312259,-2.127954 4.692459,-2.293457 6.202895,-0.299744 0.570593,0.690012 0.888757,1.580664 0.885246,2.47602 z m 9.671764,4.139805 c -1.262708,0.463873 -2.663459,0.486888 -3.987882,0.754614 -3.277422,0.494555 -6.554955,1.064782 -9.832307,1.512097 -4.358684,-0.696041 -8.717369,-1.392083 -13.076053,-2.088125 -1.76279,-1.180191 -2.542,2.009446 -0.594274,2.057113 3.237236,1.031752 6.474472,2.063504 9.711708,3.095256 -0.04192,2.54336 -0.01147,5.098431 -0.09836,7.634514 -1.271761,3.942566 -2.541113,7.907224 -3.815955,11.83481 -0.01466,1.38812 2.122837,1.424931 2.34398,0.136266 1.879554,-3.904042 3.759109,-7.808083 5.638664,-11.712125 1.921267,4.060432 3.842534,8.120864 5.763801,12.181296 0.823374,1.401813 2.867765,-0.11494 1.893347,-1.364324 -1.155747,-3.729581 -2.379497,-7.448023 -3.492853,-11.184547 -0.04642,-2.338482 -0.09283,-4.676963 -0.13925,-7.015444 3.487097,-1.279638 6.974195,-2.559275 10.461292,-3.838913 0.977521,-0.643715 0.373593,-2.172935 -0.775861,-2.002488 z"
       id="path6668"
       inkscape:connector-curvature="0" />
    <path
       inkscape:connector-curvature="0"
       style="color:#000000;fill:#000000;fill-opacity:1;fill-rule:nonzero;stroke:none;marker:none;visibility:visible;display:inline;overflow:visible;enable-background:accumulate;stroke-width:1px;opacity:0.65"
       id="path6668-4"
       d="m 36.058469,20.893267 c 0,2.149083 -1.736054,3.893267 -3.87512,3.893267 -2.139067,0 -3.875122,-1.744184 -3.875122,-3.893267 0,-2.149084 1.736055,-3.893268 3.875122,-3.893268 2.139066,0 3.87512,1.744184 3.87512,3.893268 z m 9.671764,4.139805 c -0.179232,0.02918 -0.348589,0.1002 -0.49374,0.207186 L 31.999596,27.314084 18.833991,25.211658 c -0.340332,-0.247996 -0.818822,-0.322258 -1.199102,-0.138139 -0.380282,0.184117 -0.629582,0.620506 -0.634825,1.035762 -0.0048,0.415311 0.259272,0.773474 0.634825,0.966723 l 10.316536,3.288023 -0.07056,7.548193 -3.640288,11.304759 c -0.350605,0.514771 -0.243745,1.175882 0.282144,1.51907 0.525912,0.343238 1.271702,0.238657 1.622342,-0.276173 l 5.874694,-12.202384 5.763801,12.181296 c 0.311664,0.533931 1.006404,0.719406 1.551794,0.414315 0.54539,-0.305087 0.73487,-0.985191 0.423217,-1.519126 L 36.185852,37.980585 36.044802,30.874473 46.506094,27.03556 c 0.422678,-0.290164 0.606302,-0.839489 0.423231,-1.311944 -0.183086,-0.472505 -0.686221,-0.747796 -1.199126,-0.690544 l 3.5e-5,0 z" />
    <path
       inkscape:connector-curvature="0"
       style="font-size:72px;font-style:normal;font-weight:bold;opacity:0.1;fill:none;stroke:url(#linearGradient3086);stroke-width:1;stroke-opacity:1;font-family:Standard Symbols L"
       d="m 32.157214,17.639687 c -2.137475,-0.264076 -4.291036,2.696522 -2.977723,4.930811 1.306649,2.385665 4.98877,2.14175 6.055971,-0.373122 0.850157,-2.276099 -1.049799,-4.684315 -3.078248,-4.557689 z"
       id="path4669" />
    <path
       sodipodi:type="inkscape:offset"
       inkscape:radius="-0.54115099"
       inkscape:original="M 45.71875 26.03125 C 45.539518 26.06043 45.395151 26.143014 45.25 26.25 L 32 28.3125 L 18.84375 26.21875 C 18.503418 25.970754 18.00528 25.878381 17.625 26.0625 C 17.244718 26.246617 17.005243 26.678494 17 27.09375 C 16.9952 27.509061 17.249447 27.869251 17.625 28.0625 L 27.9375 31.375 L 27.875 38.90625 L 24.25 50.21875 C 23.899395 50.733521 24.005361 51.406812 24.53125 51.75 C 25.057162 52.093238 25.80561 51.98358 26.15625 51.46875 L 32.03125 39.25 L 37.78125 51.4375 C 38.092914 51.971431 38.79836 52.148841 39.34375 51.84375 C 39.88914 51.538663 40.061653 50.877685 39.75 50.34375 L 36.1875 38.96875 L 36.03125 31.875 L 46.5 28.03125 C 46.922678 27.741086 47.120571 27.191205 46.9375 26.71875 C 46.754414 26.246245 46.231655 25.973998 45.71875 26.03125 z "
       style="opacity:0.1;color:#000000;fill:none;stroke:url(#linearGradient3143);stroke-width:1;stroke-linecap:butt;stroke-linejoin:miter;stroke-miterlimit:4;stroke-opacity:1;stroke-dasharray:none;stroke-dashoffset:0;marker:none;visibility:visible;display:inline;overflow:visible;enable-background:accumulate"
       id="path3141"
       d="m 17.875,26.5625 c -0.161744,0.07831 -0.341073,0.31926 -0.34375,0.53125 -0.0022,0.190884 0.123097,0.386458 0.34375,0.5 L 28.09375,30.875 a 0.5412051,0.5412051 0 0 1 0.375,0.5 l -0.0625,7.53125 A 0.5412051,0.5412051 0 0 1 28.375,39.0625 L 24.75,50.375 a 0.5412051,0.5412051 0 0 1 -0.0625,0.15625 c -0.198463,0.29139 -0.157472,0.565662 0.125,0.75 0.259265,0.16921 0.650422,0.133633 0.84375,-0.0625 L 25.6875,51.1875 31.53125,39 a 0.5412051,0.5412051 0 0 1 1,0.03125 l 5.71875,12.125 c 0.158749,0.271962 0.549886,0.383138 0.84375,0.21875 0.297187,-0.166244 0.357309,-0.459077 0.1875,-0.75 A 0.5412051,0.5412051 0 0 1 39.21875,50.5 l -3.5625,-11.375 a 0.5412051,0.5412051 0 0 1 0,-0.15625 L 35.5,31.875 a 0.5412051,0.5412051 0 0 1 0.34375,-0.5 L 46.1875,27.59375 c 0.009,-0.0062 -0.0086,-0.02461 0,-0.03125 0.205865,-0.15881 0.331096,-0.446963 0.25,-0.65625 -0.0799,-0.206209 -0.351133,-0.360533 -0.625,-0.34375 -0.01063,6.51e-4 -0.02061,-0.0012 -0.03125,0 -0.05732,0.01258 -0.115912,0.0492 -0.21875,0.125 a 0.5412051,0.5412051 0 0 1 -0.21875,0.09375 l -13.25,2.0625 a 0.5412051,0.5412051 0 0 1 -0.1875,0 L 18.75,26.75 A 0.5412051,0.5412051 0 0 1 18.53125,26.65625 C 18.34235,26.518601 18.024553,26.490091 17.875,26.5625 z"
       transform="translate(0,-0.95192042)" />
    <path
       inkscape:connector-curvature="0"
       style="opacity:0.8;color:#000000;fill:none;stroke:url(#linearGradient3096);stroke-width:1;stroke-linecap:round;stroke-linejoin:round;stroke-miterlimit:4;stroke-opacity:1;stroke-dasharray:none;stroke-dashoffset:0;marker:none;visibility:visible;display:inline;overflow:visible;enable-background:accumulate"
       id="path8655-6"
       d="m 56.499999,33.999132 c 0,13.531412 -10.969831,24.500867 -24.49969,24.500867 -13.531097,0 -24.5003091,-10.969579 -24.5003091,-24.500867 0,-13.530787 10.9692121,-24.4991302 24.5003091,-24.4991302 13.529859,0 24.49969,10.9683432 24.49969,24.4991302 l 0,0 z" />
  </g>
</svg>
